# Blender 4.3.2
# www.blender.org
mtllib generic_s5.mtl
o connector_linked.002
v -0.303140 -0.350000 0.000000
v -0.088590 -0.490000 -0.000000
v -0.297316 -0.350000 0.059140
v -0.086888 -0.490000 0.017283
v -0.280065 -0.350000 0.116007
v -0.081847 -0.490000 0.033902
v -0.252052 -0.350000 0.168416
v -0.073660 -0.490000 0.049218
v -0.214353 -0.350000 0.214353
v -0.062643 -0.490000 0.062643
v -0.168416 -0.350000 0.252052
v -0.049218 -0.490000 0.073660
v -0.116007 -0.350000 0.280065
v -0.033902 -0.490000 0.081847
v -0.059140 -0.350000 0.297316
v -0.017283 -0.490000 0.086888
v 0.000000 -0.350000 0.303141
v 0.000000 -0.490000 0.088590
v 0.059140 -0.350000 0.297316
v 0.017283 -0.490000 0.086888
v 0.116007 -0.350000 0.280065
v 0.033902 -0.490000 0.081847
v 0.168416 -0.350000 0.252052
v 0.049218 -0.490000 0.073660
v 0.214353 -0.350000 0.214353
v 0.062643 -0.490000 0.062643
v 0.252052 -0.350000 0.168416
v 0.073660 -0.490000 0.049218
v 0.280065 -0.350000 0.116007
v 0.081847 -0.490000 0.033902
v 0.297316 -0.350000 0.059140
v 0.086888 -0.490000 0.017283
v 0.303141 -0.350000 -0.000000
v 0.088590 -0.490000 -0.000000
v 0.297316 -0.350000 -0.059140
v 0.086888 -0.490000 -0.017283
v 0.280065 -0.350000 -0.116007
v 0.081847 -0.490000 -0.033902
v 0.252052 -0.350000 -0.168416
v 0.073660 -0.490000 -0.049218
v 0.214353 -0.350000 -0.214353
v 0.062643 -0.490000 -0.062643
v 0.168416 -0.350000 -0.252052
v 0.049218 -0.490000 -0.073660
v 0.116007 -0.350000 -0.280065
v 0.033902 -0.490000 -0.081847
v 0.059140 -0.350000 -0.297316
v 0.017283 -0.490000 -0.086888
v -0.000000 -0.350000 -0.303141
v 0.000000 -0.490000 -0.088590
v -0.059140 -0.350000 -0.297316
v -0.017283 -0.490000 -0.086888
v -0.116007 -0.350000 -0.280065
v -0.033902 -0.490000 -0.081847
v -0.168416 -0.350000 -0.252052
v -0.049218 -0.490000 -0.073660
v -0.214353 -0.350000 -0.214353
v -0.062643 -0.490000 -0.062643
v -0.252052 -0.350000 -0.168416
v -0.073660 -0.490000 -0.049218
v -0.280065 -0.350000 -0.116007
v -0.081847 -0.490000 -0.033902
v -0.297316 -0.350000 -0.059140
v -0.086888 -0.490000 -0.017283
v -0.297316 -0.490000 0.059140
v -0.303140 -0.490000 0.000000
v -0.280065 -0.490000 0.116007
v -0.252052 -0.490000 0.168416
v -0.214353 -0.490000 0.214353
v -0.168416 -0.490000 0.252052
v -0.116007 -0.490000 0.280065
v -0.059140 -0.490000 0.297316
v 0.000000 -0.490000 0.303141
v 0.059140 -0.490000 0.297316
v 0.116007 -0.490000 0.280065
v 0.168416 -0.490000 0.252052
v 0.214353 -0.490000 0.214353
v 0.252052 -0.490000 0.168416
v 0.280065 -0.490000 0.116007
v 0.297316 -0.490000 0.059140
v 0.303141 -0.490000 -0.000000
v 0.297316 -0.490000 -0.059140
v 0.280065 -0.490000 -0.116007
v 0.252052 -0.490000 -0.168416
v 0.214353 -0.490000 -0.214353
v 0.168416 -0.490000 -0.252052
v 0.116007 -0.490000 -0.280065
v 0.059140 -0.490000 -0.297316
v -0.000000 -0.490000 -0.303141
v -0.059140 -0.490000 -0.297316
v -0.116007 -0.490000 -0.280065
v -0.168416 -0.490000 -0.252052
v -0.214353 -0.490000 -0.214353
v -0.252052 -0.490000 -0.168416
v -0.280065 -0.490000 -0.116007
v -0.297316 -0.490000 -0.059140
v -0.107150 -0.490000 0.021314
v -0.109249 -0.490000 -0.000000
v -0.100933 -0.490000 0.041808
v -0.090838 -0.490000 0.060696
v -0.077251 -0.490000 0.077251
v -0.060696 -0.490000 0.090838
v -0.041808 -0.490000 0.100933
v -0.021313 -0.490000 0.107150
v 0.000000 -0.490000 0.109249
v 0.021314 -0.490000 0.107150
v 0.041808 -0.490000 0.100933
v 0.060696 -0.490000 0.090838
v 0.077251 -0.490000 0.077251
v 0.090838 -0.490000 0.060696
v 0.100933 -0.490000 0.041808
v 0.107150 -0.490000 0.021313
v 0.109250 -0.490000 -0.000000
v 0.107150 -0.490000 -0.021314
v 0.100933 -0.490000 -0.041808
v 0.090838 -0.490000 -0.060696
v 0.077251 -0.490000 -0.077251
v 0.060696 -0.490000 -0.090838
v 0.041808 -0.490000 -0.100933
v 0.021314 -0.490000 -0.107150
v 0.000000 -0.490000 -0.109250
v -0.021313 -0.490000 -0.107150
v -0.041808 -0.490000 -0.100933
v -0.060696 -0.490000 -0.090838
v -0.077251 -0.490000 -0.077251
v -0.090838 -0.490000 -0.060696
v -0.100933 -0.490000 -0.041808
v -0.107150 -0.490000 -0.021314
v -0.107150 -0.550000 0.021314
v -0.109249 -0.550000 -0.000000
v -0.100933 -0.550000 0.041808
v -0.090838 -0.550000 0.060696
v -0.077251 -0.550000 0.077251
v -0.060696 -0.550000 0.090838
v -0.041808 -0.550000 0.100933
v -0.021313 -0.550000 0.107150
v 0.000000 -0.550000 0.109249
v 0.021314 -0.550000 0.107150
v 0.041808 -0.550000 0.100933
v 0.060696 -0.550000 0.090838
v 0.077251 -0.550000 0.077251
v 0.090838 -0.550000 0.060696
v 0.100934 -0.550000 0.041808
v 0.107150 -0.550000 0.021313
v 0.109250 -0.550000 -0.000000
v 0.107150 -0.550000 -0.021314
v 0.100933 -0.550000 -0.041808
v 0.090838 -0.550000 -0.060696
v 0.077251 -0.550000 -0.077251
v 0.060696 -0.550000 -0.090838
v 0.041808 -0.550000 -0.100933
v 0.021314 -0.550000 -0.107150
v 0.000000 -0.550000 -0.109250
v -0.021313 -0.550000 -0.107150
v -0.041808 -0.550000 -0.100933
v -0.060696 -0.550000 -0.090838
v -0.077251 -0.550000 -0.077251
v -0.090838 -0.550000 -0.060696
v -0.100933 -0.550000 -0.041808
v -0.107150 -0.550000 -0.021314
v -0.086888 -0.550000 0.017283
v -0.088590 -0.550000 -0.000000
v -0.081847 -0.550000 0.033902
v -0.073660 -0.550000 0.049218
v -0.062643 -0.550000 0.062643
v -0.049218 -0.550000 0.073660
v -0.033902 -0.550000 0.081847
v -0.017283 -0.550000 0.086888
v 0.000000 -0.550000 0.088590
v 0.017283 -0.550000 0.086888
v 0.033902 -0.550000 0.081847
v 0.049218 -0.550000 0.073660
v 0.062643 -0.550000 0.062643
v 0.073660 -0.550000 0.049218
v 0.081847 -0.550000 0.033902
v 0.086888 -0.550000 0.017283
v 0.088590 -0.550000 -0.000000
v 0.086888 -0.550000 -0.017283
v 0.081847 -0.550000 -0.033902
v 0.073660 -0.550000 -0.049218
v 0.062643 -0.550000 -0.062643
v 0.049218 -0.550000 -0.073660
v 0.033902 -0.550000 -0.081847
v 0.017283 -0.550000 -0.086888
v 0.000000 -0.550000 -0.088590
v -0.017283 -0.550000 -0.086888
v -0.033902 -0.550000 -0.081847
v -0.049218 -0.550000 -0.073660
v -0.062643 -0.550000 -0.062643
v -0.073660 -0.550000 -0.049218
v -0.081847 -0.550000 -0.033902
v -0.086888 -0.550000 -0.017283
vn -1.0000 -0.0000 -0.0000
vn -0.9808 -0.0000 0.1951
vn -0.9239 -0.0000 0.3827
vn -0.8315 -0.0000 0.5556
vn -0.7071 -0.0000 0.7071
vn -0.5556 -0.0000 0.8315
vn -0.3827 -0.0000 0.9239
vn -0.1951 -0.0000 0.9808
vn -0.0000 -0.0000 1.0000
vn 0.1951 -0.0000 0.9808
vn 0.3827 -0.0000 0.9239
vn 0.5556 -0.0000 0.8315
vn 0.7071 -0.0000 0.7071
vn 0.8315 -0.0000 0.5556
vn 0.9239 -0.0000 0.3827
vn 0.9808 -0.0000 0.1951
vn 1.0000 -0.0000 -0.0000
vn 0.9808 -0.0000 -0.1951
vn 0.9239 -0.0000 -0.3827
vn 0.8315 -0.0000 -0.5556
vn 0.7071 -0.0000 -0.7071
vn 0.5556 -0.0000 -0.8315
vn 0.3827 -0.0000 -0.9239
vn 0.1951 -0.0000 -0.9808
vn -0.0000 -0.0000 -1.0000
vn -0.1951 -0.0000 -0.9808
vn -0.3827 -0.0000 -0.9239
vn -0.5556 -0.0000 -0.8315
vn -0.7071 -0.0000 -0.7071
vn -0.8315 -0.0000 -0.5556
vn -0.9239 -0.0000 -0.3827
vn -0.0000 -1.0000 -0.0000
vn -0.9808 -0.0000 -0.1951
vn -0.0000 1.0000 -0.0000
vt 1.000000 1.000000
vt 0.968750 0.500000
vt 1.000000 0.500000
vt 0.968750 1.000000
vt 0.937500 0.500000
vt 0.937500 1.000000
vt 0.906250 0.500000
vt 0.906250 1.000000
vt 0.875000 0.500000
vt 0.875000 1.000000
vt 0.843750 0.500000
vt 0.843750 1.000000
vt 0.812500 0.500000
vt 0.812500 1.000000
vt 0.781250 0.500000
vt 0.781250 1.000000
vt 0.750000 0.500000
vt 0.750000 1.000000
vt 0.718750 0.500000
vt 0.718750 1.000000
vt 0.687500 0.500000
vt 0.687500 1.000000
vt 0.656250 0.500000
vt 0.656250 1.000000
vt 0.625000 0.500000
vt 0.625000 1.000000
vt 0.593750 0.500000
vt 0.593750 1.000000
vt 0.562500 0.500000
vt 0.562500 1.000000
vt 0.531250 0.500000
vt 0.531250 1.000000
vt 0.500000 0.500000
vt 0.500000 1.000000
vt 0.468750 0.500000
vt 0.468750 1.000000
vt 0.437500 0.500000
vt 0.437500 1.000000
vt 0.406250 0.500000
vt 0.406250 1.000000
vt 0.375000 0.500000
vt 0.375000 1.000000
vt 0.343750 0.500000
vt 0.343750 1.000000
vt 0.312500 0.500000
vt 0.312500 1.000000
vt 0.281250 0.500000
vt 0.281250 1.000000
vt 0.250000 0.500000
vt 0.250000 1.000000
vt 0.218750 0.500000
vt 0.218750 1.000000
vt 0.187500 0.500000
vt 0.187500 1.000000
vt 0.156250 0.500000
vt 0.156250 1.000000
vt 0.125000 0.500000
vt 0.125000 1.000000
vt 0.093750 0.500000
vt 0.093750 1.000000
vt 0.062500 0.500000
vt 0.205266 0.142002
vt 0.357998 0.205266
vt 0.294734 0.357998
vt 0.062500 1.000000
vt 0.031250 0.500000
vt 0.031250 1.000000
vt 0.000000 0.500000
vt 0.796822 0.014612
vt 0.514612 0.203178
vt 0.703178 0.485388
vt 0.250000 0.394157
vt 0.296822 0.485388
vt 0.250000 0.490000
vt 0.278124 0.391387
vt 0.341844 0.471731
vt 0.305166 0.383184
vt 0.383337 0.449553
vt 0.351934 0.351934
vt 0.330089 0.369862
vt 0.369862 0.330089
vt 0.419706 0.419706
vt 0.471731 0.341844
vt 0.449553 0.383337
vt 0.391387 0.278124
vt 0.383184 0.305166
vt 0.394157 0.250000
vt 0.485388 0.296822
vt 0.485388 0.203178
vt 0.490000 0.250000
vt 0.391387 0.221876
vt 0.471731 0.158156
vt 0.383184 0.194834
vt 0.449553 0.116663
vt 0.369862 0.169911
vt 0.419706 0.080294
vt 0.330089 0.130138
vt 0.351934 0.148066
vt 0.341844 0.028269
vt 0.383337 0.050447
vt 0.278124 0.108613
vt 0.305166 0.116816
vt 0.250000 0.105843
vt 0.296822 0.014612
vt 0.221876 0.108613
vt 0.250000 0.010000
vt 0.158156 0.028269
vt 0.203178 0.014612
vt 0.169911 0.130138
vt 0.194834 0.116816
vt 0.080294 0.080294
vt 0.116663 0.050447
vt 0.130138 0.169911
vt 0.148066 0.148066
vt 0.028269 0.158156
vt 0.050447 0.116663
vt 0.116816 0.194834
vt 0.014612 0.203178
vt 0.105843 0.250000
vt 0.108613 0.221876
vt 0.108613 0.278124
vt 0.010000 0.250000
vt 0.028269 0.341844
vt 0.014612 0.296822
vt 0.130138 0.330089
vt 0.116816 0.305167
vt 0.080294 0.419706
vt 0.050447 0.383337
vt 0.169911 0.369862
vt 0.148066 0.351934
vt 0.194834 0.383184
vt 0.116663 0.449553
vt 0.221876 0.391387
vt 0.158156 0.471731
vt 0.203178 0.485388
vt 0.294734 0.142002
vt 0.314944 0.152804
vt 0.332658 0.167342
vt 0.347196 0.185056
vt 0.364650 0.227195
vt 0.366897 0.250000
vt 0.364650 0.272805
vt 0.357998 0.294734
vt 0.347196 0.314944
vt 0.250000 0.366897
vt 0.227195 0.364650
vt 0.332658 0.332658
vt 0.205266 0.357998
vt 0.314944 0.347196
vt 0.185056 0.347196
vt 0.167342 0.332658
vt 0.272805 0.364651
vt 0.152804 0.314944
vt 0.272805 0.135350
vt 0.250000 0.133103
vt 0.227195 0.135350
vt 0.185056 0.152804
vt 0.152804 0.185056
vt 0.167342 0.167342
vt 0.142002 0.205266
vt 0.133103 0.250000
vt 0.135350 0.227195
vt 0.135350 0.272805
vt 0.142002 0.294735
vt 0.000000 1.000000
vt 0.750000 0.490000
vt 0.796822 0.485388
vt 0.841844 0.471731
vt 0.883337 0.449553
vt 0.919706 0.419706
vt 0.949553 0.383337
vt 0.971731 0.341844
vt 0.985388 0.296822
vt 0.990000 0.250000
vt 0.985388 0.203178
vt 0.971731 0.158156
vt 0.949553 0.116663
vt 0.919706 0.080294
vt 0.883337 0.050447
vt 0.841844 0.028269
vt 0.750000 0.010000
vt 0.703178 0.014612
vt 0.658156 0.028269
vt 0.616663 0.050447
vt 0.580294 0.080294
vt 0.550447 0.116663
vt 0.528269 0.158156
vt 0.510000 0.250000
vt 0.514612 0.296822
vt 0.528269 0.341844
vt 0.550447 0.383337
vt 0.580294 0.419706
vt 0.616663 0.449553
vt 0.658156 0.471731
s 1
usemtl Material.003
f 66/1/1 3/2/2 1/3/1
f 65/4/2 5/5/3 3/2/2
f 67/6/3 7/7/4 5/5/3
f 68/8/4 9/9/5 7/7/4
f 69/10/5 11/11/6 9/9/5
f 70/12/6 13/13/7 11/11/6
f 71/14/7 15/15/8 13/13/7
f 72/16/8 17/17/9 15/15/8
f 73/18/9 19/19/10 17/17/9
f 74/20/10 21/21/11 19/19/10
f 75/22/11 23/23/12 21/21/11
f 76/24/12 25/25/13 23/23/12
f 77/26/13 27/27/14 25/25/13
f 78/28/14 29/29/15 27/27/14
f 79/30/15 31/31/16 29/29/15
f 80/32/16 33/33/17 31/31/16
f 81/34/17 35/35/18 33/33/17
f 82/36/18 37/37/19 35/35/18
f 83/38/19 39/39/20 37/37/19
f 84/40/20 41/41/21 39/39/20
f 85/42/21 43/43/22 41/41/21
f 86/44/22 45/45/23 43/43/22
f 87/46/23 47/47/24 45/45/23
f 88/48/24 49/49/25 47/47/24
f 89/50/25 51/51/26 49/49/25
f 90/52/26 53/53/27 51/51/26
f 91/54/27 55/55/28 53/53/27
f 92/56/28 57/57/29 55/55/28
f 93/58/29 59/59/30 57/57/29
f 94/60/30 61/61/31 59/59/30
f 38/62/32 22/63/32 6/64/32
f 95/65/31 63/66/33 61/61/31
f 96/67/33 1/68/1 63/66/33
f 31/69/34 47/70/34 63/71/34
f 98/72/32 65/73/32 66/74/32
f 97/75/32 67/76/32 65/73/32
f 99/77/32 68/78/32 67/76/32
f 101/79/32 68/78/32 100/80/32
f 102/81/32 69/82/32 101/79/32
f 102/81/32 71/83/32 70/84/32
f 104/85/32 71/83/32 103/86/32
f 105/87/32 72/88/32 104/85/32
f 105/87/32 74/89/32 73/90/32
f 106/91/32 75/92/32 74/89/32
f 107/93/32 76/94/32 75/92/32
f 108/95/32 77/96/32 76/94/32
f 110/97/32 77/96/32 109/98/32
f 110/97/32 79/99/32 78/100/32
f 112/101/32 79/99/32 111/102/32
f 113/103/32 80/104/32 112/101/32
f 114/105/32 81/106/32 113/103/32
f 114/105/32 83/107/32 82/108/32
f 116/109/32 83/107/32 115/110/32
f 116/109/32 85/111/32 84/112/32
f 118/113/32 85/111/32 117/114/32
f 118/113/32 87/115/32 86/116/32
f 119/117/32 88/118/32 87/115/32
f 121/119/32 88/118/32 120/120/32
f 122/121/32 89/122/32 121/119/32
f 122/121/32 91/123/32 90/124/32
f 124/125/32 91/123/32 123/126/32
f 124/125/32 93/127/32 92/128/32
f 126/129/32 93/127/32 125/130/32
f 127/131/32 94/132/32 126/129/32
f 128/133/32 95/134/32 127/131/32
f 98/72/32 96/135/32 128/133/32
f 30/136/31 174/137/30 28/137/30
f 121/119/25 154/121/26 122/121/26
f 28/137/30 173/138/29 26/138/29
f 120/120/24 153/119/25 121/119/25
f 26/138/29 172/139/28 24/139/28
f 119/117/23 152/120/24 120/120/24
f 24/139/28 171/63/27 22/63/27
f 118/113/22 151/117/23 119/117/23
f 22/63/27 170/140/26 20/140/26
f 117/114/21 150/113/22 118/113/22
f 20/140/26 169/141/25 18/141/25
f 116/109/20 149/114/21 117/114/21
f 18/141/25 168/142/24 16/142/24
f 115/110/19 148/109/20 116/109/20
f 16/142/24 167/143/23 14/143/23
f 115/110/19 146/105/18 147/110/19
f 14/143/23 166/144/22 12/144/22
f 2/145/17 192/146/16 64/146/16
f 113/103/17 146/105/18 114/105/18
f 10/147/21 166/144/22 165/147/21
f 64/146/16 191/148/15 62/148/15
f 112/101/16 145/103/17 113/103/17
f 10/147/21 164/149/20 8/149/20
f 62/148/15 190/150/14 60/150/14
f 111/102/15 144/101/16 112/101/16
f 8/149/20 163/64/19 6/64/19
f 60/150/14 189/151/13 58/151/13
f 110/97/14 143/102/15 111/102/15
f 6/64/19 161/152/18 4/152/18
f 58/151/13 188/153/12 56/153/12
f 109/98/13 142/97/14 110/97/14
f 2/145/17 161/152/18 162/145/17
f 161/152/32 130/72/32 162/145/32
f 163/64/32 129/75/32 161/152/32
f 164/149/32 131/77/32 163/64/32
f 164/149/32 133/79/32 132/80/32
f 166/144/32 133/79/32 165/147/32
f 167/143/32 134/81/32 166/144/32
f 168/142/32 135/86/32 167/143/32
f 169/141/32 136/85/32 168/142/32
f 169/141/32 138/91/32 137/87/32
f 171/63/32 138/91/32 170/140/32
f 171/63/32 140/95/32 139/93/32
f 172/139/32 141/98/32 140/95/32
f 174/137/32 141/98/32 173/138/32
f 175/136/32 142/97/32 174/137/32
f 176/154/32 143/102/32 175/136/32
f 177/155/32 144/101/32 176/154/32
f 178/156/32 145/103/32 177/155/32
f 178/156/32 147/110/32 146/105/32
f 180/157/32 147/110/32 179/62/32
f 180/157/32 149/114/32 148/109/32
f 182/158/32 149/114/32 181/159/32
f 183/160/32 150/113/32 182/158/32
f 183/160/32 152/120/32 151/117/32
f 185/161/32 152/120/32 184/162/32
f 186/163/32 153/119/32 185/161/32
f 186/163/32 155/126/32 154/121/32
f 188/153/32 155/126/32 187/164/32
f 188/153/32 157/130/32 156/125/32
f 190/150/32 157/130/32 189/151/32
f 190/150/32 159/131/32 158/129/32
f 192/146/32 159/131/32 191/148/32
f 162/145/32 160/133/32 192/146/32
f 122/121/26 155/126/27 123/126/27
f 32/154/33 175/136/31 30/136/31
f 123/126/27 156/125/28 124/125/28
f 98/72/1 129/75/2 97/75/2
f 34/155/1 176/154/33 32/154/33
f 124/125/28 157/130/29 125/130/29
f 97/75/2 131/77/3 99/77/3
f 36/156/2 177/155/1 34/155/1
f 125/130/29 158/129/30 126/129/30
f 99/77/3 132/80/4 100/80/4
f 38/62/3 178/156/2 36/156/2
f 126/129/30 159/131/31 127/131/31
f 100/80/4 133/79/5 101/79/5
f 38/62/3 180/157/4 179/62/3
f 127/131/31 160/133/33 128/133/33
f 101/79/5 134/81/6 102/81/6
f 42/159/5 180/157/4 40/157/4
f 128/133/33 130/72/1 98/72/1
f 102/81/6 135/86/7 103/86/7
f 44/158/6 181/159/5 42/159/5
f 103/86/7 136/85/8 104/85/8
f 46/160/7 182/158/6 44/158/6
f 104/85/8 137/87/9 105/87/9
f 48/162/8 183/160/7 46/160/7
f 105/87/9 138/91/10 106/91/10
f 50/161/9 184/162/8 48/162/8
f 106/91/10 139/93/11 107/93/11
f 52/163/10 185/161/9 50/161/9
f 107/93/11 140/95/12 108/95/12
f 54/164/11 186/163/10 52/163/10
f 108/95/12 141/98/13 109/98/13
f 56/153/12 187/164/11 54/164/11
f 66/1/1 65/4/2 3/2/2
f 65/4/2 67/6/3 5/5/3
f 67/6/3 68/8/4 7/7/4
f 68/8/4 69/10/5 9/9/5
f 69/10/5 70/12/6 11/11/6
f 70/12/6 71/14/7 13/13/7
f 71/14/7 72/16/8 15/15/8
f 72/16/8 73/18/9 17/17/9
f 73/18/9 74/20/10 19/19/10
f 74/20/10 75/22/11 21/21/11
f 75/22/11 76/24/12 23/23/12
f 76/24/12 77/26/13 25/25/13
f 77/26/13 78/28/14 27/27/14
f 78/28/14 79/30/15 29/29/15
f 79/30/15 80/32/16 31/31/16
f 80/32/16 81/34/17 33/33/17
f 81/34/17 82/36/18 35/35/18
f 82/36/18 83/38/19 37/37/19
f 83/38/19 84/40/20 39/39/20
f 84/40/20 85/42/21 41/41/21
f 85/42/21 86/44/22 43/43/22
f 86/44/22 87/46/23 45/45/23
f 87/46/23 88/48/24 47/47/24
f 88/48/24 89/50/25 49/49/25
f 89/50/25 90/52/26 51/51/26
f 90/52/26 91/54/27 53/53/27
f 91/54/27 92/56/28 55/55/28
f 92/56/28 93/58/29 57/57/29
f 93/58/29 94/60/30 59/59/30
f 94/60/30 95/65/31 61/61/31
f 6/64/32 4/152/32 2/145/32
f 2/145/32 64/146/32 62/148/32
f 62/148/32 60/150/32 58/151/32
f 58/151/32 56/153/32 54/164/32
f 54/164/32 52/163/32 50/161/32
f 50/161/32 48/162/32 46/160/32
f 46/160/32 44/158/32 42/159/32
f 42/159/32 40/157/32 38/62/32
f 38/62/32 36/156/32 34/155/32
f 34/155/32 32/154/32 30/136/32
f 30/136/32 28/137/32 26/138/32
f 26/138/32 24/139/32 22/63/32
f 22/63/32 20/140/32 18/141/32
f 18/141/32 16/142/32 14/143/32
f 14/143/32 12/144/32 10/147/32
f 10/147/32 8/149/32 6/64/32
f 6/64/32 2/145/32 62/148/32
f 62/148/32 58/151/32 54/164/32
f 54/164/32 50/161/32 46/160/32
f 46/160/32 42/159/32 38/62/32
f 38/62/32 34/155/32 30/136/32
f 30/136/32 26/138/32 22/63/32
f 22/63/32 18/141/32 14/143/32
f 14/143/32 10/147/32 6/64/32
f 6/64/32 62/148/32 54/164/32
f 54/164/32 46/160/32 38/62/32
f 38/62/32 30/136/32 22/63/32
f 22/63/32 14/143/32 6/64/32
f 6/64/32 54/164/32 38/62/32
f 95/65/31 96/67/33 63/66/33
f 96/67/33 66/165/1 1/68/1
f 63/71/34 1/166/34 3/167/34
f 3/167/34 5/168/34 7/169/34
f 7/169/34 9/170/34 11/171/34
f 11/171/34 13/172/34 15/173/34
f 15/173/34 17/174/34 19/175/34
f 19/175/34 21/176/34 23/177/34
f 23/177/34 25/178/34 27/179/34
f 27/179/34 29/180/34 31/69/34
f 31/69/34 33/181/34 35/182/34
f 35/182/34 37/183/34 39/184/34
f 39/184/34 41/185/34 43/186/34
f 43/186/34 45/187/34 47/70/34
f 47/70/34 49/188/34 51/189/34
f 51/189/34 53/190/34 55/191/34
f 55/191/34 57/192/34 59/193/34
f 59/193/34 61/194/34 63/71/34
f 63/71/34 3/167/34 7/169/34
f 7/169/34 11/171/34 15/173/34
f 15/173/34 19/175/34 23/177/34
f 23/177/34 27/179/34 31/69/34
f 31/69/34 35/182/34 39/184/34
f 39/184/34 43/186/34 47/70/34
f 47/70/34 51/189/34 55/191/34
f 55/191/34 59/193/34 63/71/34
f 63/71/34 7/169/34 15/173/34
f 15/173/34 23/177/34 31/69/34
f 31/69/34 39/184/34 47/70/34
f 47/70/34 55/191/34 63/71/34
f 63/71/34 15/173/34 31/69/34
f 98/72/32 97/75/32 65/73/32
f 97/75/32 99/77/32 67/76/32
f 99/77/32 100/80/32 68/78/32
f 101/79/32 69/82/32 68/78/32
f 102/81/32 70/84/32 69/82/32
f 102/81/32 103/86/32 71/83/32
f 104/85/32 72/88/32 71/83/32
f 105/87/32 73/90/32 72/88/32
f 105/87/32 106/91/32 74/89/32
f 106/91/32 107/93/32 75/92/32
f 107/93/32 108/95/32 76/94/32
f 108/95/32 109/98/32 77/96/32
f 110/97/32 78/100/32 77/96/32
f 110/97/32 111/102/32 79/99/32
f 112/101/32 80/104/32 79/99/32
f 113/103/32 81/106/32 80/104/32
f 114/105/32 82/108/32 81/106/32
f 114/105/32 115/110/32 83/107/32
f 116/109/32 84/112/32 83/107/32
f 116/109/32 117/114/32 85/111/32
f 118/113/32 86/116/32 85/111/32
f 118/113/32 119/117/32 87/115/32
f 119/117/32 120/120/32 88/118/32
f 121/119/32 89/122/32 88/118/32
f 122/121/32 90/124/32 89/122/32
f 122/121/32 123/126/32 91/123/32
f 124/125/32 92/128/32 91/123/32
f 124/125/32 125/130/32 93/127/32
f 126/129/32 94/132/32 93/127/32
f 127/131/32 95/134/32 94/132/32
f 128/133/32 96/135/32 95/134/32
f 98/72/32 66/74/32 96/135/32
f 30/136/31 175/136/31 174/137/30
f 121/119/25 153/119/25 154/121/26
f 28/137/30 174/137/30 173/138/29
f 120/120/24 152/120/24 153/119/25
f 26/138/29 173/138/29 172/139/28
f 119/117/23 151/117/23 152/120/24
f 24/139/28 172/139/28 171/63/27
f 118/113/22 150/113/22 151/117/23
f 22/63/27 171/63/27 170/140/26
f 117/114/21 149/114/21 150/113/22
f 20/140/26 170/140/26 169/141/25
f 116/109/20 148/109/20 149/114/21
f 18/141/25 169/141/25 168/142/24
f 115/110/19 147/110/19 148/109/20
f 16/142/24 168/142/24 167/143/23
f 115/110/19 114/105/18 146/105/18
f 14/143/23 167/143/23 166/144/22
f 2/145/17 162/145/17 192/146/16
f 113/103/17 145/103/17 146/105/18
f 10/147/21 12/144/22 166/144/22
f 64/146/16 192/146/16 191/148/15
f 112/101/16 144/101/16 145/103/17
f 10/147/21 165/147/21 164/149/20
f 62/148/15 191/148/15 190/150/14
f 111/102/15 143/102/15 144/101/16
f 8/149/20 164/149/20 163/64/19
f 60/150/14 190/150/14 189/151/13
f 110/97/14 142/97/14 143/102/15
f 6/64/19 163/64/19 161/152/18
f 58/151/13 189/151/13 188/153/12
f 109/98/13 141/98/13 142/97/14
f 2/145/17 4/152/18 161/152/18
f 161/152/32 129/75/32 130/72/32
f 163/64/32 131/77/32 129/75/32
f 164/149/32 132/80/32 131/77/32
f 164/149/32 165/147/32 133/79/32
f 166/144/32 134/81/32 133/79/32
f 167/143/32 135/86/32 134/81/32
f 168/142/32 136/85/32 135/86/32
f 169/141/32 137/87/32 136/85/32
f 169/141/32 170/140/32 138/91/32
f 171/63/32 139/93/32 138/91/32
f 171/63/32 172/139/32 140/95/32
f 172/139/32 173/138/32 141/98/32
f 174/137/32 142/97/32 141/98/32
f 175/136/32 143/102/32 142/97/32
f 176/154/32 144/101/32 143/102/32
f 177/155/32 145/103/32 144/101/32
f 178/156/32 146/105/32 145/103/32
f 178/156/32 179/62/32 147/110/32
f 180/157/32 148/109/32 147/110/32
f 180/157/32 181/159/32 149/114/32
f 182/158/32 150/113/32 149/114/32
f 183/160/32 151/117/32 150/113/32
f 183/160/32 184/162/32 152/120/32
f 185/161/32 153/119/32 152/120/32
f 186/163/32 154/121/32 153/119/32
f 186/163/32 187/164/32 155/126/32
f 188/153/32 156/125/32 155/126/32
f 188/153/32 189/151/32 157/130/32
f 190/150/32 158/129/32 157/130/32
f 190/150/32 191/148/32 159/131/32
f 192/146/32 160/133/32 159/131/32
f 162/145/32 130/72/32 160/133/32
f 122/121/26 154/121/26 155/126/27
f 32/154/33 176/154/33 175/136/31
f 123/126/27 155/126/27 156/125/28
f 98/72/1 130/72/1 129/75/2
f 34/155/1 177/155/1 176/154/33
f 124/125/28 156/125/28 157/130/29
f 97/75/2 129/75/2 131/77/3
f 36/156/2 178/156/2 177/155/1
f 125/130/29 157/130/29 158/129/30
f 99/77/3 131/77/3 132/80/4
f 38/62/3 179/62/3 178/156/2
f 126/129/30 158/129/30 159/131/31
f 100/80/4 132/80/4 133/79/5
f 38/62/3 40/157/4 180/157/4
f 127/131/31 159/131/31 160/133/33
f 101/79/5 133/79/5 134/81/6
f 42/159/5 181/159/5 180/157/4
f 128/133/33 160/133/33 130/72/1
f 102/81/6 134/81/6 135/86/7
f 44/158/6 182/158/6 181/159/5
f 103/86/7 135/86/7 136/85/8
f 46/160/7 183/160/7 182/158/6
f 104/85/8 136/85/8 137/87/9
f 48/162/8 184/162/8 183/160/7
f 105/87/9 137/87/9 138/91/10
f 50/161/9 185/161/9 184/162/8
f 106/91/10 138/91/10 139/93/11
f 52/163/10 186/163/10 185/161/9
f 107/93/11 139/93/11 140/95/12
f 54/164/11 187/164/11 186/163/10
f 108/95/12 140/95/12 141/98/13
f 56/153/12 188/153/12 187/164/11
o Cylinder.001
v -0.000000 -0.521166 2.950000
v 0.000000 -0.721166 2.950000
v 0.087791 -0.521166 2.941353
v 0.087791 -0.721166 2.941353
v 0.172208 -0.521166 2.915745
v 0.172208 -0.721166 2.915745
v 0.250007 -0.521166 2.874161
v 0.250007 -0.721166 2.874161
v 0.318198 -0.521166 2.818198
v 0.318198 -0.721166 2.818198
v 0.374161 -0.521166 2.750006
v 0.374161 -0.721166 2.750006
v 0.415746 -0.521166 2.672207
v 0.415746 -0.721166 2.672207
v 0.441353 -0.521166 2.587790
v 0.441353 -0.721166 2.587790
v 0.450000 -0.521165 -0.000000
v 0.450000 -0.721165 -0.000000
v 0.441353 -0.521165 -0.087791
v 0.441353 -0.721165 -0.087791
v 0.415746 -0.521165 -0.172208
v 0.415746 -0.721165 -0.172208
v 0.374161 -0.521165 -0.250007
v 0.374161 -0.721165 -0.250007
v 0.318198 -0.521165 -0.318198
v 0.318198 -0.721165 -0.318198
v 0.250007 -0.521165 -0.374161
v 0.250007 -0.721165 -0.374162
v 0.172208 -0.521165 -0.415746
v 0.172208 -0.721165 -0.415746
v 0.087791 -0.521165 -0.441354
v 0.087791 -0.721165 -0.441354
v 0.000000 -0.521165 -0.450000
v 0.000000 -0.721165 -0.450000
v -0.087791 -0.521165 -0.441354
v -0.087791 -0.721165 -0.441354
v -0.172208 -0.521165 -0.415746
v -0.172207 -0.721165 -0.415746
v -0.250007 -0.521165 -0.374161
v -0.250007 -0.721165 -0.374162
v -0.318198 -0.521165 -0.318198
v -0.318198 -0.721165 -0.318198
v -0.374161 -0.521165 -0.250007
v -0.374161 -0.721165 -0.250007
v -0.415746 -0.521165 -0.172208
v -0.415746 -0.721165 -0.172208
v -0.441353 -0.521165 -0.087791
v -0.441353 -0.721165 -0.087791
v -0.450000 -0.521165 -0.000000
v -0.450000 -0.721165 -0.000000
v -0.441353 -0.521166 2.587790
v -0.441353 -0.721166 2.587790
v -0.415746 -0.521166 2.672207
v -0.415746 -0.721166 2.672207
v -0.374161 -0.521166 2.750006
v -0.374161 -0.721166 2.750006
v -0.318198 -0.521166 2.818198
v -0.318198 -0.721166 2.818198
v -0.250007 -0.521166 2.874161
v -0.250007 -0.721166 2.874161
v -0.172208 -0.521166 2.915745
v -0.172207 -0.721166 2.915745
v -0.087791 -0.521166 2.941353
v -0.087791 -0.721166 2.941353
vn -0.0000 -0.0000 1.0000
vn 0.1951 -0.0000 0.9808
vn 0.3827 -0.0000 0.9239
vn 0.5556 -0.0000 0.8315
vn 0.7071 -0.0000 0.7071
vn 0.8315 -0.0000 0.5556
vn 0.9239 -0.0000 0.3827
vn 0.9889 -0.0000 0.1484
vn 0.9989 -0.0000 -0.0474
vn 0.9808 -0.0000 -0.1951
vn 0.9239 -0.0000 -0.3827
vn 0.8315 -0.0000 -0.5556
vn 0.7071 -0.0000 -0.7071
vn 0.5556 -0.0000 -0.8315
vn 0.3827 -0.0000 -0.9239
vn 0.1951 -0.0000 -0.9808
vn -0.0000 -0.0000 -1.0000
vn -0.1951 -0.0000 -0.9808
vn -0.3827 -0.0000 -0.9239
vn -0.5556 -0.0000 -0.8315
vn -0.7071 -0.0000 -0.7071
vn -0.8315 -0.0000 -0.5556
vn -0.9239 -0.0000 -0.3827
vn -0.9808 -0.0000 -0.1951
vn -0.9989 -0.0000 -0.0474
vn -0.9889 -0.0000 0.1484
vn -0.9239 -0.0000 0.3827
vn -0.8315 -0.0000 0.5556
vn -0.7071 -0.0000 0.7071
vn -0.5556 -0.0000 0.8315
vn -0.3827 -0.0000 0.9239
vn -0.0000 -1.0000 -0.0000
vn -0.1951 -0.0000 0.9808
vn -0.0000 1.0000 -0.0000
vt 1.000000 1.000000
vt 0.968750 0.500000
vt 1.000000 0.500000
vt 0.968750 1.000000
vt 0.937500 0.500000
vt 0.937500 1.000000
vt 0.906250 0.500000
vt 0.906250 1.000000
vt 0.875000 0.500000
vt 0.875000 1.000000
vt 0.843750 0.500000
vt 0.843750 1.000000
vt 0.812500 0.500000
vt 0.812500 1.000000
vt 0.781250 0.500000
vt 0.781250 1.000000
vt 0.750000 0.500000
vt 0.750000 1.000000
vt 0.718750 0.500000
vt 0.718750 1.000000
vt 0.687500 0.500000
vt 0.687500 1.000000
vt 0.656250 0.500000
vt 0.656250 1.000000
vt 0.625000 0.500000
vt 0.625000 1.000000
vt 0.593750 0.500000
vt 0.593750 1.000000
vt 0.562500 0.500000
vt 0.562500 1.000000
vt 0.531250 0.500000
vt 0.531250 1.000000
vt 0.500000 0.500000
vt 0.500000 1.000000
vt 0.468750 0.500000
vt 0.468750 1.000000
vt 0.437500 0.500000
vt 0.437500 1.000000
vt 0.406250 0.500000
vt 0.406250 1.000000
vt 0.375000 0.500000
vt 0.375000 1.000000
vt 0.343750 0.500000
vt 0.343750 1.000000
vt 0.312500 0.500000
vt 0.312500 1.000000
vt 0.281250 0.500000
vt 0.281250 1.000000
vt 0.250000 0.500000
vt 0.250000 1.000000
vt 0.218750 0.500000
vt 0.218750 1.000000
vt 0.187500 0.500000
vt 0.187500 1.000000
vt 0.156250 0.500000
vt 0.156250 1.000000
vt 0.125000 0.500000
vt 0.125000 1.000000
vt 0.093750 0.500000
vt 0.093750 1.000000
vt 0.062500 0.500000
vt 0.158156 0.028269
vt 0.471731 0.158156
vt 0.341844 0.471731
vt 0.062500 1.000000
vt 0.031250 0.500000
vt 0.031250 1.000000
vt 0.000000 0.500000
vt 0.796822 0.014612
vt 0.514612 0.203178
vt 0.703178 0.485388
vt 0.296822 0.485388
vt 0.250000 0.490000
vt 0.203178 0.485388
vt 0.158156 0.471731
vt 0.116663 0.449553
vt 0.080294 0.419706
vt 0.050447 0.383337
vt 0.028269 0.341844
vt 0.014612 0.296822
vt 0.010000 0.250000
vt 0.014612 0.203178
vt 0.028269 0.158156
vt 0.050447 0.116663
vt 0.080294 0.080294
vt 0.116663 0.050447
vt 0.203178 0.014612
vt 0.250000 0.010000
vt 0.296822 0.014612
vt 0.341844 0.028269
vt 0.383337 0.050447
vt 0.419706 0.080294
vt 0.449553 0.116663
vt 0.485388 0.203178
vt 0.490000 0.250000
vt 0.485388 0.296822
vt 0.471731 0.341844
vt 0.449553 0.383337
vt 0.419706 0.419706
vt 0.383337 0.449553
vt 0.000000 1.000000
vt 0.750000 0.490000
vt 0.796822 0.485388
vt 0.841844 0.471731
vt 0.883337 0.449553
vt 0.919706 0.419706
vt 0.949553 0.383337
vt 0.971731 0.341844
vt 0.985388 0.296822
vt 0.990000 0.250000
vt 0.985388 0.203178
vt 0.971731 0.158156
vt 0.949553 0.116663
vt 0.919706 0.080294
vt 0.883337 0.050447
vt 0.841844 0.028269
vt 0.750000 0.010000
vt 0.703178 0.014612
vt 0.658156 0.028269
vt 0.616663 0.050447
vt 0.580294 0.080294
vt 0.550447 0.116663
vt 0.528269 0.158156
vt 0.510000 0.250000
vt 0.514612 0.296822
vt 0.528269 0.341844
vt 0.550447 0.383337
vt 0.580294 0.419706
vt 0.616663 0.449553
vt 0.658156 0.471731
s 1
usemtl Material.004
f 194/195/35 195/196/36 193/197/35
f 196/198/36 197/199/37 195/196/36
f 198/200/37 199/201/38 197/199/37
f 200/202/38 201/203/39 199/201/38
f 202/204/39 203/205/40 201/203/39
f 204/206/40 205/207/41 203/205/40
f 206/208/41 207/209/42 205/207/41
f 208/210/42 209/211/43 207/209/42
f 210/212/43 211/213/44 209/211/43
f 212/214/44 213/215/45 211/213/44
f 214/216/45 215/217/46 213/215/45
f 216/218/46 217/219/47 215/217/46
f 218/220/47 219/221/48 217/219/47
f 220/222/48 221/223/49 219/221/48
f 222/224/49 223/225/50 221/223/49
f 224/226/50 225/227/51 223/225/50
f 226/228/51 227/229/52 225/227/51
f 228/230/52 229/231/53 227/229/52
f 230/232/53 231/233/54 229/231/53
f 232/234/54 233/235/55 231/233/54
f 234/236/55 235/237/56 233/235/55
f 236/238/56 237/239/57 235/237/56
f 238/240/57 239/241/58 237/239/57
f 240/242/58 241/243/59 239/241/58
f 242/244/59 243/245/60 241/243/59
f 244/246/60 245/247/61 243/245/60
f 246/248/61 247/249/62 245/247/61
f 248/250/62 249/251/63 247/249/62
f 250/252/63 251/253/64 249/251/63
f 252/254/64 253/255/65 251/253/64
f 230/256/66 214/257/66 198/258/66
f 254/259/65 255/260/67 253/255/65
f 256/261/67 193/262/35 255/260/67
f 223/263/68 239/264/68 255/265/68
f 194/195/35 196/198/36 195/196/36
f 196/198/36 198/200/37 197/199/37
f 198/200/37 200/202/38 199/201/38
f 200/202/38 202/204/39 201/203/39
f 202/204/39 204/206/40 203/205/40
f 204/206/40 206/208/41 205/207/41
f 206/208/41 208/210/42 207/209/42
f 208/210/42 210/212/43 209/211/43
f 210/212/43 212/214/44 211/213/44
f 212/214/44 214/216/45 213/215/45
f 214/216/45 216/218/46 215/217/46
f 216/218/46 218/220/47 217/219/47
f 218/220/47 220/222/48 219/221/48
f 220/222/48 222/224/49 221/223/49
f 222/224/49 224/226/50 223/225/50
f 224/226/50 226/228/51 225/227/51
f 226/228/51 228/230/52 227/229/52
f 228/230/52 230/232/53 229/231/53
f 230/232/53 232/234/54 231/233/54
f 232/234/54 234/236/55 233/235/55
f 234/236/55 236/238/56 235/237/56
f 236/238/56 238/240/57 237/239/57
f 238/240/57 240/242/58 239/241/58
f 240/242/58 242/244/59 241/243/59
f 242/244/59 244/246/60 243/245/60
f 244/246/60 246/248/61 245/247/61
f 246/248/61 248/250/62 247/249/62
f 248/250/62 250/252/63 249/251/63
f 250/252/63 252/254/64 251/253/64
f 252/254/64 254/259/65 253/255/65
f 198/258/66 196/266/66 194/267/66
f 194/267/66 256/268/66 254/269/66
f 254/269/66 252/270/66 250/271/66
f 250/271/66 248/272/66 246/273/66
f 246/273/66 244/274/66 242/275/66
f 242/275/66 240/276/66 238/277/66
f 238/277/66 236/278/66 234/279/66
f 234/279/66 232/280/66 230/256/66
f 230/256/66 228/281/66 226/282/66
f 226/282/66 224/283/66 222/284/66
f 222/284/66 220/285/66 218/286/66
f 218/286/66 216/287/66 214/257/66
f 214/257/66 212/288/66 210/289/66
f 210/289/66 208/290/66 206/291/66
f 206/291/66 204/292/66 202/293/66
f 202/293/66 200/294/66 198/258/66
f 198/258/66 194/267/66 254/269/66
f 254/269/66 250/271/66 246/273/66
f 246/273/66 242/275/66 238/277/66
f 238/277/66 234/279/66 230/256/66
f 230/256/66 226/282/66 222/284/66
f 222/284/66 218/286/66 214/257/66
f 214/257/66 210/289/66 206/291/66
f 206/291/66 202/293/66 198/258/66
f 198/258/66 254/269/66 246/273/66
f 246/273/66 238/277/66 230/256/66
f 230/256/66 222/284/66 214/257/66
f 214/257/66 206/291/66 198/258/66
f 198/258/66 246/273/66 230/256/66
f 254/259/65 256/261/67 255/260/67
f 256/261/67 194/295/35 193/262/35
f 255/265/68 193/296/68 195/297/68
f 195/297/68 197/298/68 199/299/68
f 199/299/68 201/300/68 203/301/68
f 203/301/68 205/302/68 207/303/68
f 207/303/68 209/304/68 211/305/68
f 211/305/68 213/306/68 215/307/68
f 215/307/68 217/308/68 219/309/68
f 219/309/68 221/310/68 223/263/68
f 223/263/68 225/311/68 227/312/68
f 227/312/68 229/313/68 231/314/68
f 231/314/68 233/315/68 235/316/68
f 235/316/68 237/317/68 239/264/68
f 239/264/68 241/318/68 243/319/68
f 243/319/68 245/320/68 247/321/68
f 247/321/68 249/322/68 251/323/68
f 251/323/68 253/324/68 255/265/68
f 255/265/68 195/297/68 199/299/68
f 199/299/68 203/301/68 207/303/68
f 207/303/68 211/305/68 215/307/68
f 215/307/68 219/309/68 223/263/68
f 223/263/68 227/312/68 231/314/68
f 231/314/68 235/316/68 239/264/68
f 239/264/68 243/319/68 247/321/68
f 247/321/68 251/323/68 255/265/68
f 255/265/68 199/299/68 207/303/68
f 207/303/68 215/307/68 223/263/68
f 223/263/68 231/314/68 239/264/68
f 239/264/68 247/321/68 255/265/68
f 255/265/68 207/303/68 223/263/68
o basic_servo.003
v 0.375000 -0.530000 1.449975
v 0.375000 0.595000 1.449975
v 0.375000 -0.530000 2.949975
v 0.375000 0.595000 2.949975
v -0.375000 -0.530000 1.449975
v -0.375000 0.595000 1.449975
v -0.375000 -0.530000 2.949975
v -0.375000 0.595000 2.949975
vn 1.0000 -0.0000 -0.0000
vn -0.0000 -0.0000 1.0000
vn -1.0000 -0.0000 -0.0000
vn -0.0000 -0.0000 -1.0000
vn -0.0000 -1.0000 -0.0000
vn -0.0000 1.0000 -0.0000
vt 0.625000 0.000000
vt 0.375000 0.250000
vt 0.375000 0.000000
vt 0.625000 0.250000
vt 0.375000 0.500000
vt 0.625000 0.500000
vt 0.375000 0.750000
vt 0.625000 0.750000
vt 0.375000 1.000000
vt 0.125000 0.750000
vt 0.125000 0.500000
vt 0.875000 0.500000
vt 0.625000 1.000000
vt 0.875000 0.750000
s 1
usemtl Material.002
f 258/325/69 259/326/69 257/327/69
f 260/328/70 263/329/70 259/326/70
f 264/330/71 261/331/71 263/329/71
f 262/332/72 257/333/72 261/331/72
f 263/329/73 257/334/73 259/335/73
f 260/336/74 262/332/74 264/330/74
f 258/325/69 260/328/69 259/326/69
f 260/328/70 264/330/70 263/329/70
f 264/330/71 262/332/71 261/331/71
f 262/332/72 258/337/72 257/333/72
f 263/329/73 261/331/73 257/334/73
f 260/336/74 258/338/74 262/332/74
