# Blender 4.3.2
# www.blender.org
mtllib generic_s4.mtl
o basic_servo.002
v 0.375000 0.762500 1.150000
v 0.375000 -0.362500 1.150000
v 0.375000 0.762500 -0.350000
v 0.375000 -0.362500 -0.350000
v -0.375000 0.762500 1.150000
v -0.375000 -0.362500 1.150000
v -0.375000 0.762500 -0.350000
v -0.375000 -0.362500 -0.350000
vn 1.0000 -0.0000 -0.0000
vn -0.0000 -0.0000 -1.0000
vn -1.0000 -0.0000 -0.0000
vn -0.0000 -0.0000 1.0000
vn -0.0000 1.0000 -0.0000
vn -0.0000 -1.0000 -0.0000
vt 0.625000 0.000000
vt 0.375000 0.250000
vt 0.375000 0.000000
vt 0.625000 0.250000
vt 0.375000 0.500000
vt 0.625000 0.500000
vt 0.375000 0.750000
vt 0.625000 0.750000
vt 0.375000 1.000000
vt 0.125000 0.750000
vt 0.125000 0.500000
vt 0.875000 0.500000
vt 0.625000 1.000000
vt 0.875000 0.750000
s 1
usemtl Material.002
f 2/1/1 3/2/1 1/3/1
f 4/4/2 7/5/2 3/2/2
f 8/6/3 5/7/3 7/5/3
f 6/8/4 1/9/4 5/7/4
f 7/5/5 1/10/5 3/11/5
f 4/12/6 6/8/6 8/6/6
f 2/1/1 4/4/1 3/2/1
f 4/4/2 8/6/2 7/5/2
f 8/6/3 6/8/3 5/7/3
f 6/8/4 2/13/4 1/9/4
f 7/5/5 5/7/5 1/10/5
f 4/12/6 2/14/6 6/8/6
o connector.002
v -0.350000 -0.303141 0.000000
v -0.490000 -0.088590 0.000000
v -0.350000 -0.297316 -0.059140
v -0.490000 -0.086888 -0.017283
v -0.350000 -0.280065 -0.116007
v -0.490000 -0.081847 -0.033902
v -0.350000 -0.252052 -0.168416
v -0.490000 -0.073660 -0.049218
v -0.350000 -0.214353 -0.214353
v -0.490000 -0.062643 -0.062643
v -0.350000 -0.168416 -0.252052
v -0.490000 -0.049218 -0.073660
v -0.350000 -0.116007 -0.280065
v -0.490000 -0.033902 -0.081847
v -0.350000 -0.059140 -0.297316
v -0.490000 -0.017283 -0.086888
v -0.350000 -0.000000 -0.303141
v -0.490000 -0.000000 -0.088590
v -0.350000 0.059140 -0.297316
v -0.490000 0.017283 -0.086888
v -0.350000 0.116007 -0.280065
v -0.490000 0.033902 -0.081847
v -0.350000 0.168416 -0.252052
v -0.490000 0.049218 -0.073660
v -0.350000 0.214353 -0.214353
v -0.490000 0.062643 -0.062643
v -0.350000 0.252052 -0.168416
v -0.490000 0.073660 -0.049218
v -0.350000 0.280065 -0.116007
v -0.490000 0.081847 -0.033902
v -0.350000 0.297316 -0.059140
v -0.490000 0.086888 -0.017283
v -0.350000 0.303141 -0.000000
v -0.490000 0.088590 0.000000
v -0.350000 0.297316 0.059140
v -0.490000 0.086888 0.017283
v -0.350000 0.280065 0.116007
v -0.490000 0.081847 0.033902
v -0.350000 0.252052 0.168416
v -0.490000 0.073660 0.049218
v -0.350000 0.214353 0.214353
v -0.490000 0.062643 0.062643
v -0.350000 0.168416 0.252052
v -0.490000 0.049218 0.073660
v -0.350000 0.116007 0.280065
v -0.490000 0.033902 0.081847
v -0.350000 0.059140 0.297316
v -0.490000 0.017283 0.086888
v -0.350000 0.000000 0.303141
v -0.490000 0.000000 0.088590
v -0.350000 -0.059140 0.297316
v -0.490000 -0.017283 0.086888
v -0.350000 -0.116007 0.280065
v -0.490000 -0.033902 0.081847
v -0.350000 -0.168416 0.252052
v -0.490000 -0.049218 0.073660
v -0.350000 -0.214353 0.214353
v -0.490000 -0.062643 0.062643
v -0.350000 -0.252052 0.168416
v -0.490000 -0.073660 0.049218
v -0.350000 -0.280065 0.116007
v -0.490000 -0.081847 0.033902
v -0.350000 -0.297316 0.059140
v -0.490000 -0.086888 0.017283
v -0.490000 -0.297316 -0.059140
v -0.490000 -0.303141 0.000000
v -0.490000 -0.280065 -0.116007
v -0.490000 -0.252052 -0.168416
v -0.490000 -0.214353 -0.214353
v -0.490000 -0.168416 -0.252052
v -0.490000 -0.116007 -0.280065
v -0.490000 -0.059140 -0.297316
v -0.490000 -0.000000 -0.303141
v -0.490000 0.059140 -0.297316
v -0.490000 0.116007 -0.280065
v -0.490000 0.168416 -0.252052
v -0.490000 0.214353 -0.214353
v -0.490000 0.252052 -0.168416
v -0.490000 0.280065 -0.116007
v -0.490000 0.297316 -0.059140
v -0.490000 0.303141 -0.000000
v -0.490000 0.297316 0.059140
v -0.490000 0.280065 0.116007
v -0.490000 0.252052 0.168416
v -0.490000 0.214353 0.214353
v -0.490000 0.168416 0.252052
v -0.490000 0.116007 0.280065
v -0.490000 0.059140 0.297316
v -0.490000 0.000000 0.303141
v -0.490000 -0.059140 0.297316
v -0.490000 -0.116007 0.280065
v -0.490000 -0.168416 0.252052
v -0.490000 -0.214353 0.214353
v -0.490000 -0.252052 0.168416
v -0.490000 -0.280065 0.116007
v -0.490000 -0.297316 0.059140
v -0.490000 -0.107150 -0.021314
v -0.490000 -0.109250 0.000000
v -0.490000 -0.100933 -0.041808
v -0.490000 -0.090838 -0.060696
v -0.490000 -0.077251 -0.077251
v -0.490000 -0.060696 -0.090838
v -0.490000 -0.041808 -0.100933
v -0.490000 -0.021314 -0.107150
v -0.490000 -0.000000 -0.109250
v -0.490000 0.021314 -0.107150
v -0.490000 0.041808 -0.100933
v -0.490000 0.060696 -0.090838
v -0.490000 0.077251 -0.077251
v -0.490000 0.090838 -0.060696
v -0.490000 0.100933 -0.041808
v -0.490000 0.107150 -0.021314
v -0.490000 0.109250 0.000000
v -0.490000 0.107150 0.021314
v -0.490000 0.100933 0.041808
v -0.490000 0.090838 0.060696
v -0.490000 0.077251 0.077251
v -0.490000 0.060696 0.090838
v -0.490000 0.041808 0.100933
v -0.490000 0.021314 0.107150
v -0.490000 0.000000 0.109250
v -0.490000 -0.021314 0.107150
v -0.490000 -0.041808 0.100933
v -0.490000 -0.060696 0.090838
v -0.490000 -0.077251 0.077251
v -0.490000 -0.090838 0.060696
v -0.490000 -0.100933 0.041808
v -0.490000 -0.107150 0.021314
v -0.550000 -0.107150 -0.021313
v -0.550000 -0.109250 0.000000
v -0.550000 -0.100933 -0.041808
v -0.550000 -0.090838 -0.060696
v -0.550000 -0.077251 -0.077251
v -0.550000 -0.060696 -0.090838
v -0.550000 -0.041808 -0.100933
v -0.550000 -0.021314 -0.107150
v -0.550000 -0.000000 -0.109250
v -0.550000 0.021314 -0.107150
v -0.550000 0.041808 -0.100933
v -0.550000 0.060696 -0.090838
v -0.550000 0.077251 -0.077251
v -0.550000 0.090838 -0.060696
v -0.550000 0.100933 -0.041808
v -0.550000 0.107150 -0.021314
v -0.550000 0.109250 0.000000
v -0.550000 0.107150 0.021314
v -0.550000 0.100933 0.041808
v -0.550000 0.090838 0.060696
v -0.550000 0.077251 0.077251
v -0.550000 0.060696 0.090838
v -0.550000 0.041808 0.100933
v -0.550000 0.021314 0.107150
v -0.550000 0.000000 0.109250
v -0.550000 -0.021314 0.107150
v -0.550000 -0.041808 0.100933
v -0.550000 -0.060696 0.090838
v -0.550000 -0.077251 0.077251
v -0.550000 -0.090838 0.060696
v -0.550000 -0.100933 0.041808
v -0.550000 -0.107150 0.021314
v -0.550000 -0.086888 -0.017283
v -0.550000 -0.088590 0.000000
v -0.550000 -0.081847 -0.033902
v -0.550000 -0.073660 -0.049218
v -0.550000 -0.062643 -0.062643
v -0.550000 -0.049218 -0.073660
v -0.550000 -0.033902 -0.081847
v -0.550000 -0.017283 -0.086888
v -0.550000 -0.000000 -0.088590
v -0.550000 0.017283 -0.086888
v -0.550000 0.033902 -0.081847
v -0.550000 0.049218 -0.073660
v -0.550000 0.062643 -0.062643
v -0.550000 0.073660 -0.049218
v -0.550000 0.081847 -0.033902
v -0.550000 0.086888 -0.017283
v -0.550000 0.088590 0.000000
v -0.550000 0.086888 0.017283
v -0.550000 0.081847 0.033902
v -0.550000 0.073660 0.049218
v -0.550000 0.062643 0.062643
v -0.550000 0.049218 0.073660
v -0.550000 0.033902 0.081847
v -0.550000 0.017283 0.086888
v -0.550000 0.000000 0.088590
v -0.550000 -0.017283 0.086888
v -0.550000 -0.033902 0.081847
v -0.550000 -0.049218 0.073660
v -0.550000 -0.062643 0.062643
v -0.550000 -0.073660 0.049218
v -0.550000 -0.081847 0.033902
v -0.550000 -0.086888 0.017283
v 0.350000 -0.303141 0.000000
v 0.490000 -0.088590 0.000000
v 0.350000 -0.297316 -0.059140
v 0.490000 -0.086888 -0.017283
v 0.350000 -0.280065 -0.116007
v 0.490000 -0.081847 -0.033902
v 0.350000 -0.252052 -0.168416
v 0.490000 -0.073660 -0.049218
v 0.350000 -0.214353 -0.214353
v 0.490000 -0.062643 -0.062643
v 0.350000 -0.168416 -0.252052
v 0.490000 -0.049218 -0.073660
v 0.350000 -0.116007 -0.280065
v 0.490000 -0.033902 -0.081847
v 0.350000 -0.059140 -0.297316
v 0.490000 -0.017283 -0.086888
v 0.350000 -0.000000 -0.303141
v 0.490000 -0.000000 -0.088590
v 0.350000 0.059140 -0.297316
v 0.490000 0.017283 -0.086888
v 0.350000 0.116007 -0.280065
v 0.490000 0.033902 -0.081847
v 0.350000 0.168416 -0.252052
v 0.490000 0.049218 -0.073660
v 0.350000 0.214353 -0.214353
v 0.490000 0.062643 -0.062643
v 0.350000 0.252052 -0.168416
v 0.490000 0.073660 -0.049218
v 0.350000 0.280065 -0.116007
v 0.490000 0.081847 -0.033902
v 0.350000 0.297316 -0.059140
v 0.490000 0.086888 -0.017283
v 0.350000 0.303141 -0.000000
v 0.490000 0.088590 0.000000
v 0.350000 0.297316 0.059140
v 0.490000 0.086888 0.017283
v 0.350000 0.280065 0.116007
v 0.490000 0.081847 0.033902
v 0.350000 0.252052 0.168416
v 0.490000 0.073660 0.049218
v 0.350000 0.214353 0.214353
v 0.490000 0.062643 0.062643
v 0.350000 0.168416 0.252052
v 0.490000 0.049218 0.073660
v 0.350000 0.116007 0.280065
v 0.490000 0.033902 0.081847
v 0.350000 0.059140 0.297316
v 0.490000 0.017283 0.086888
v 0.350000 0.000000 0.303141
v 0.490000 0.000000 0.088590
v 0.350000 -0.059140 0.297316
v 0.490000 -0.017283 0.086888
v 0.350000 -0.116007 0.280065
v 0.490000 -0.033902 0.081847
v 0.350000 -0.168416 0.252052
v 0.490000 -0.049218 0.073660
v 0.350000 -0.214353 0.214353
v 0.490000 -0.062643 0.062643
v 0.350000 -0.252052 0.168416
v 0.490000 -0.073660 0.049218
v 0.350000 -0.280065 0.116007
v 0.490000 -0.081847 0.033902
v 0.350000 -0.297316 0.059140
v 0.490000 -0.086888 0.017283
v 0.490000 -0.297316 -0.059140
v 0.490000 -0.303141 0.000000
v 0.490000 -0.280065 -0.116007
v 0.490000 -0.252052 -0.168416
v 0.490000 -0.214353 -0.214353
v 0.490000 -0.168416 -0.252052
v 0.490000 -0.116007 -0.280065
v 0.490000 -0.059140 -0.297316
v 0.490000 -0.000000 -0.303141
v 0.490000 0.059140 -0.297316
v 0.490000 0.116007 -0.280065
v 0.490000 0.168416 -0.252052
v 0.490000 0.214353 -0.214353
v 0.490000 0.252052 -0.168416
v 0.490000 0.280065 -0.116007
v 0.490000 0.297316 -0.059140
v 0.490000 0.303141 -0.000000
v 0.490000 0.297316 0.059140
v 0.490000 0.280065 0.116007
v 0.490000 0.252052 0.168416
v 0.490000 0.214353 0.214353
v 0.490000 0.168416 0.252052
v 0.490000 0.116007 0.280065
v 0.490000 0.059140 0.297316
v 0.490000 0.000000 0.303141
v 0.490000 -0.059140 0.297316
v 0.490000 -0.116007 0.280065
v 0.490000 -0.168416 0.252052
v 0.490000 -0.214353 0.214353
v 0.490000 -0.252052 0.168416
v 0.490000 -0.280065 0.116007
v 0.490000 -0.297316 0.059140
v 0.490000 -0.107150 -0.021314
v 0.490000 -0.109250 0.000000
v 0.490000 -0.100933 -0.041808
v 0.490000 -0.090838 -0.060696
v 0.490000 -0.077251 -0.077251
v 0.490000 -0.060696 -0.090838
v 0.490000 -0.041808 -0.100933
v 0.490000 -0.021314 -0.107150
v 0.490000 -0.000000 -0.109250
v 0.490000 0.021314 -0.107150
v 0.490000 0.041808 -0.100933
v 0.490000 0.060696 -0.090838
v 0.490000 0.077251 -0.077251
v 0.490000 0.090838 -0.060696
v 0.490000 0.100933 -0.041808
v 0.490000 0.107150 -0.021314
v 0.490000 0.109250 0.000000
v 0.490000 0.107150 0.021314
v 0.490000 0.100933 0.041808
v 0.490000 0.090838 0.060696
v 0.490000 0.077251 0.077251
v 0.490000 0.060696 0.090838
v 0.490000 0.041808 0.100933
v 0.490000 0.021314 0.107150
v 0.490000 0.000000 0.109250
v 0.490000 -0.021314 0.107150
v 0.490000 -0.041808 0.100933
v 0.490000 -0.060696 0.090838
v 0.490000 -0.077251 0.077251
v 0.490000 -0.090838 0.060696
v 0.490000 -0.100933 0.041808
v 0.490000 -0.107150 0.021314
v 0.550000 -0.107150 -0.021313
v 0.550000 -0.109250 0.000000
v 0.550000 -0.100933 -0.041808
v 0.550000 -0.090838 -0.060696
v 0.550000 -0.077251 -0.077251
v 0.550000 -0.060696 -0.090838
v 0.550000 -0.041808 -0.100933
v 0.550000 -0.021314 -0.107150
v 0.550000 -0.000000 -0.109250
v 0.550000 0.021314 -0.107150
v 0.550000 0.041808 -0.100933
v 0.550000 0.060696 -0.090838
v 0.550000 0.077251 -0.077251
v 0.550000 0.090838 -0.060696
v 0.550000 0.100933 -0.041808
v 0.550000 0.107150 -0.021314
v 0.550000 0.109250 0.000000
v 0.550000 0.107150 0.021314
v 0.550000 0.100933 0.041808
v 0.550000 0.090838 0.060696
v 0.550000 0.077251 0.077251
v 0.550000 0.060696 0.090838
v 0.550000 0.041808 0.100933
v 0.550000 0.021314 0.107150
v 0.550000 0.000000 0.109250
v 0.550000 -0.021314 0.107150
v 0.550000 -0.041808 0.100933
v 0.550000 -0.060696 0.090838
v 0.550000 -0.077251 0.077251
v 0.550000 -0.090838 0.060696
v 0.550000 -0.100933 0.041808
v 0.550000 -0.107150 0.021314
v 0.550000 -0.086888 -0.017283
v 0.550000 -0.088590 0.000000
v 0.550000 -0.081847 -0.033902
v 0.550000 -0.073660 -0.049218
v 0.550000 -0.062643 -0.062643
v 0.550000 -0.049218 -0.073660
v 0.550000 -0.033902 -0.081847
v 0.550000 -0.017283 -0.086888
v 0.550000 -0.000000 -0.088590
v 0.550000 0.017283 -0.086888
v 0.550000 0.033902 -0.081847
v 0.550000 0.049218 -0.073660
v 0.550000 0.062643 -0.062643
v 0.550000 0.073660 -0.049218
v 0.550000 0.081847 -0.033902
v 0.550000 0.086888 -0.017283
v 0.550000 0.088590 0.000000
v 0.550000 0.086888 0.017283
v 0.550000 0.081847 0.033902
v 0.550000 0.073660 0.049218
v 0.550000 0.062643 0.062643
v 0.550000 0.049218 0.073660
v 0.550000 0.033902 0.081847
v 0.550000 0.017283 0.086888
v 0.550000 0.000000 0.088590
v 0.550000 -0.017283 0.086888
v 0.550000 -0.033902 0.081847
v 0.550000 -0.049218 0.073660
v 0.550000 -0.062643 0.062643
v 0.550000 -0.073660 0.049218
v 0.550000 -0.081847 0.033902
v 0.550000 -0.086888 0.017283
vn -0.0000 -1.0000 -0.0000
vn -0.0000 -0.9808 -0.1951
vn -0.0000 -0.9239 -0.3827
vn -0.0000 -0.8315 -0.5556
vn -0.0000 -0.7071 -0.7071
vn -0.0000 -0.5556 -0.8315
vn -0.0000 -0.3827 -0.9239
vn -0.0000 -0.1951 -0.9808
vn -0.0000 -0.0000 -1.0000
vn -0.0000 0.1951 -0.9808
vn -0.0000 0.3827 -0.9239
vn -0.0000 0.5556 -0.8315
vn -0.0000 0.7071 -0.7071
vn -0.0000 0.8315 -0.5556
vn -0.0000 0.9239 -0.3827
vn -0.0000 0.9808 -0.1951
vn -0.0000 1.0000 -0.0000
vn -0.0000 0.9808 0.1951
vn -0.0000 0.9239 0.3827
vn -0.0000 0.8315 0.5556
vn -0.0000 0.7071 0.7071
vn -0.0000 0.5556 0.8315
vn -0.0000 0.3827 0.9239
vn -0.0000 0.1951 0.9808
vn -0.0000 -0.0000 1.0000
vn -0.0000 -0.1951 0.9808
vn -0.0000 -0.3827 0.9239
vn -0.0000 -0.5556 0.8315
vn -0.0000 -0.7071 0.7071
vn -0.0000 -0.8315 0.5556
vn -0.0000 -0.9239 0.3827
vn -1.0000 -0.0000 -0.0000
vn -0.0000 -0.9808 0.1951
vn 1.0000 -0.0000 -0.0000
vt 1.000000 1.000000
vt 0.968750 0.500000
vt 1.000000 0.500000
vt 0.968750 1.000000
vt 0.937500 0.500000
vt 0.937500 1.000000
vt 0.906250 0.500000
vt 0.906250 1.000000
vt 0.875000 0.500000
vt 0.875000 1.000000
vt 0.843750 0.500000
vt 0.843750 1.000000
vt 0.812500 0.500000
vt 0.812500 1.000000
vt 0.781250 0.500000
vt 0.781250 1.000000
vt 0.750000 0.500000
vt 0.750000 1.000000
vt 0.718750 0.500000
vt 0.718750 1.000000
vt 0.687500 0.500000
vt 0.687500 1.000000
vt 0.656250 0.500000
vt 0.656250 1.000000
vt 0.625000 0.500000
vt 0.625000 1.000000
vt 0.593750 0.500000
vt 0.593750 1.000000
vt 0.562500 0.500000
vt 0.562500 1.000000
vt 0.531250 0.500000
vt 0.531250 1.000000
vt 0.500000 0.500000
vt 0.500000 1.000000
vt 0.468750 0.500000
vt 0.468750 1.000000
vt 0.437500 0.500000
vt 0.437500 1.000000
vt 0.406250 0.500000
vt 0.406250 1.000000
vt 0.375000 0.500000
vt 0.375000 1.000000
vt 0.343750 0.500000
vt 0.343750 1.000000
vt 0.312500 0.500000
vt 0.312500 1.000000
vt 0.281250 0.500000
vt 0.281250 1.000000
vt 0.250000 0.500000
vt 0.250000 1.000000
vt 0.218750 0.500000
vt 0.218750 1.000000
vt 0.187500 0.500000
vt 0.187500 1.000000
vt 0.156250 0.500000
vt 0.156250 1.000000
vt 0.125000 0.500000
vt 0.125000 1.000000
vt 0.093750 0.500000
vt 0.093750 1.000000
vt 0.062500 0.500000
vt 0.205266 0.142002
vt 0.357998 0.205266
vt 0.294734 0.357998
vt 0.062500 1.000000
vt 0.031250 0.500000
vt 0.031250 1.000000
vt 0.000000 0.500000
vt 0.796822 0.014612
vt 0.514612 0.203178
vt 0.703178 0.485388
vt 0.250000 0.394157
vt 0.296822 0.485388
vt 0.250000 0.490000
vt 0.278124 0.391387
vt 0.341844 0.471731
vt 0.305166 0.383184
vt 0.383337 0.449553
vt 0.351934 0.351934
vt 0.330089 0.369862
vt 0.369862 0.330089
vt 0.419706 0.419706
vt 0.471731 0.341844
vt 0.449553 0.383337
vt 0.391387 0.278124
vt 0.383184 0.305166
vt 0.394157 0.250000
vt 0.485388 0.296822
vt 0.485388 0.203178
vt 0.490000 0.250000
vt 0.391387 0.221876
vt 0.471731 0.158156
vt 0.383184 0.194834
vt 0.449553 0.116663
vt 0.369862 0.169911
vt 0.419706 0.080294
vt 0.330089 0.130138
vt 0.351934 0.148066
vt 0.341844 0.028269
vt 0.383337 0.050447
vt 0.278124 0.108613
vt 0.305166 0.116816
vt 0.250000 0.105843
vt 0.296822 0.014612
vt 0.221876 0.108613
vt 0.250000 0.010000
vt 0.158156 0.028269
vt 0.203178 0.014612
vt 0.169911 0.130138
vt 0.194834 0.116816
vt 0.080294 0.080294
vt 0.116663 0.050447
vt 0.130138 0.169911
vt 0.148066 0.148066
vt 0.028269 0.158156
vt 0.050447 0.116663
vt 0.116816 0.194834
vt 0.014612 0.203178
vt 0.105843 0.250000
vt 0.108613 0.221876
vt 0.108613 0.278124
vt 0.010000 0.250000
vt 0.028269 0.341844
vt 0.014612 0.296822
vt 0.130138 0.330089
vt 0.116816 0.305167
vt 0.080294 0.419706
vt 0.050447 0.383337
vt 0.169911 0.369862
vt 0.148066 0.351934
vt 0.194834 0.383184
vt 0.116663 0.449553
vt 0.221876 0.391387
vt 0.158156 0.471731
vt 0.203178 0.485388
vt 0.294734 0.142002
vt 0.314944 0.152804
vt 0.332658 0.167342
vt 0.347196 0.185056
vt 0.364650 0.227195
vt 0.366897 0.250000
vt 0.364650 0.272805
vt 0.357998 0.294734
vt 0.347196 0.314944
vt 0.250000 0.366897
vt 0.227195 0.364650
vt 0.332658 0.332658
vt 0.205266 0.357998
vt 0.314944 0.347196
vt 0.185056 0.347196
vt 0.167342 0.332658
vt 0.272805 0.364651
vt 0.152804 0.314944
vt 0.272805 0.135350
vt 0.250000 0.133103
vt 0.227195 0.135350
vt 0.185056 0.152804
vt 0.152804 0.185056
vt 0.167342 0.167342
vt 0.142002 0.205266
vt 0.133103 0.250000
vt 0.135350 0.227195
vt 0.135350 0.272805
vt 0.142002 0.294735
vt 0.703178 0.014612
vt 0.985388 0.203178
vt 0.796822 0.485388
vt 0.000000 1.000000
vt 0.750000 0.490000
vt 0.841844 0.471731
vt 0.883337 0.449553
vt 0.919706 0.419706
vt 0.949553 0.383337
vt 0.971731 0.341844
vt 0.985388 0.296822
vt 0.990000 0.250000
vt 0.971731 0.158156
vt 0.949553 0.116663
vt 0.919706 0.080294
vt 0.883337 0.050447
vt 0.841844 0.028269
vt 0.750000 0.010000
vt 0.658156 0.028269
vt 0.616663 0.050447
vt 0.580294 0.080294
vt 0.550447 0.116663
vt 0.528269 0.158156
vt 0.510000 0.250000
vt 0.514612 0.296822
vt 0.528269 0.341844
vt 0.550447 0.383337
vt 0.580294 0.419706
vt 0.616663 0.449553
vt 0.658156 0.471731
s 1
usemtl Material.003
f 74/15/7 11/16/8 9/17/7
f 73/18/8 13/19/9 11/16/8
f 75/20/9 15/21/10 13/19/9
f 76/22/10 17/23/11 15/21/10
f 77/24/11 19/25/12 17/23/11
f 78/26/12 21/27/13 19/25/12
f 79/28/13 23/29/14 21/27/13
f 80/30/14 25/31/15 23/29/14
f 81/32/15 27/33/16 25/31/15
f 82/34/16 29/35/17 27/33/16
f 83/36/17 31/37/18 29/35/17
f 84/38/18 33/39/19 31/37/18
f 85/40/19 35/41/20 33/39/19
f 86/42/20 37/43/21 35/41/20
f 87/44/21 39/45/22 37/43/21
f 88/46/22 41/47/23 39/45/22
f 89/48/23 43/49/24 41/47/23
f 90/50/24 45/51/25 43/49/24
f 91/52/25 47/53/26 45/51/25
f 92/54/26 49/55/27 47/53/26
f 93/56/27 51/57/28 49/55/27
f 94/58/28 53/59/29 51/57/28
f 95/60/29 55/61/30 53/59/29
f 96/62/30 57/63/31 55/61/30
f 97/64/31 59/65/32 57/63/31
f 98/66/32 61/67/33 59/65/32
f 99/68/33 63/69/34 61/67/33
f 100/70/34 65/71/35 63/69/34
f 101/72/35 67/73/36 65/71/35
f 102/74/36 69/75/37 67/73/36
f 46/76/38 30/77/38 14/78/38
f 103/79/37 71/80/39 69/75/37
f 104/81/39 9/82/7 71/80/39
f 39/83/40 55/84/40 71/85/40
f 106/86/38 73/87/38 74/88/38
f 105/89/38 75/90/38 73/87/38
f 107/91/38 76/92/38 75/90/38
f 109/93/38 76/92/38 108/94/38
f 110/95/38 77/96/38 109/93/38
f 110/95/38 79/97/38 78/98/38
f 112/99/38 79/97/38 111/100/38
f 113/101/38 80/102/38 112/99/38
f 113/101/38 82/103/38 81/104/38
f 114/105/38 83/106/38 82/103/38
f 115/107/38 84/108/38 83/106/38
f 116/109/38 85/110/38 84/108/38
f 118/111/38 85/110/38 117/112/38
f 118/111/38 87/113/38 86/114/38
f 120/115/38 87/113/38 119/116/38
f 121/117/38 88/118/38 120/115/38
f 122/119/38 89/120/38 121/117/38
f 122/119/38 91/121/38 90/122/38
f 124/123/38 91/121/38 123/124/38
f 124/123/38 93/125/38 92/126/38
f 126/127/38 93/125/38 125/128/38
f 126/127/38 95/129/38 94/130/38
f 127/131/38 96/132/38 95/129/38
f 129/133/38 96/132/38 128/134/38
f 130/135/38 97/136/38 129/133/38
f 130/135/38 99/137/38 98/138/38
f 132/139/38 99/137/38 131/140/38
f 132/139/38 101/141/38 100/142/38
f 134/143/38 101/141/38 133/144/38
f 135/145/38 102/146/38 134/143/38
f 136/147/38 103/148/38 135/145/38
f 106/86/38 104/149/38 136/147/38
f 38/150/37 182/151/36 36/151/36
f 129/133/31 162/135/32 130/135/32
f 36/151/36 181/152/35 34/152/35
f 128/134/30 161/133/31 129/133/31
f 34/152/35 180/153/34 32/153/34
f 127/131/29 160/134/30 128/134/30
f 32/153/34 179/77/33 30/77/33
f 126/127/28 159/131/29 127/131/29
f 30/77/33 178/154/32 28/154/32
f 125/128/27 158/127/28 126/127/28
f 28/154/32 177/155/31 26/155/31
f 124/123/26 157/128/27 125/128/27
f 26/155/31 176/156/30 24/156/30
f 123/124/25 156/123/26 124/123/26
f 24/156/30 175/157/29 22/157/29
f 123/124/25 154/119/24 155/124/25
f 22/157/29 174/158/28 20/158/28
f 10/159/23 200/160/22 72/160/22
f 121/117/23 154/119/24 122/119/24
f 18/161/27 174/158/28 173/161/27
f 72/160/22 199/162/21 70/162/21
f 120/115/22 153/117/23 121/117/23
f 18/161/27 172/163/26 16/163/26
f 70/162/21 198/164/20 68/164/20
f 119/116/21 152/115/22 120/115/22
f 16/163/26 171/78/25 14/78/25
f 68/164/20 197/165/19 66/165/19
f 118/111/20 151/116/21 119/116/21
f 14/78/25 169/166/24 12/166/24
f 66/165/19 196/167/18 64/167/18
f 117/112/19 150/111/20 118/111/20
f 10/159/23 169/166/24 170/159/23
f 169/166/38 138/86/38 170/159/38
f 171/78/38 137/89/38 169/166/38
f 172/163/38 139/91/38 171/78/38
f 172/163/38 141/93/38 140/94/38
f 174/158/38 141/93/38 173/161/38
f 175/157/38 142/95/38 174/158/38
f 176/156/38 143/100/38 175/157/38
f 177/155/38 144/99/38 176/156/38
f 177/155/38 146/105/38 145/101/38
f 179/77/38 146/105/38 178/154/38
f 179/77/38 148/109/38 147/107/38
f 180/153/38 149/112/38 148/109/38
f 182/151/38 149/112/38 181/152/38
f 183/150/38 150/111/38 182/151/38
f 184/168/38 151/116/38 183/150/38
f 185/169/38 152/115/38 184/168/38
f 186/170/38 153/117/38 185/169/38
f 186/170/38 155/124/38 154/119/38
f 188/171/38 155/124/38 187/76/38
f 188/171/38 157/128/38 156/123/38
f 190/172/38 157/128/38 189/173/38
f 191/174/38 158/127/38 190/172/38
f 191/174/38 160/134/38 159/131/38
f 193/175/38 160/134/38 192/176/38
f 194/177/38 161/133/38 193/175/38
f 194/177/38 163/140/38 162/135/38
f 196/167/38 163/140/38 195/178/38
f 196/167/38 165/144/38 164/139/38
f 198/164/38 165/144/38 197/165/38
f 198/164/38 167/145/38 166/143/38
f 200/160/38 167/145/38 199/162/38
f 170/159/38 168/147/38 200/160/38
f 130/135/32 163/140/33 131/140/33
f 40/168/39 183/150/37 38/150/37
f 131/140/33 164/139/34 132/139/34
f 106/86/7 137/89/8 105/89/8
f 42/169/7 184/168/39 40/168/39
f 132/139/34 165/144/35 133/144/35
f 105/89/8 139/91/9 107/91/9
f 44/170/8 185/169/7 42/169/7
f 133/144/35 166/143/36 134/143/36
f 107/91/9 140/94/10 108/94/10
f 46/76/9 186/170/8 44/170/8
f 134/143/36 167/145/37 135/145/37
f 108/94/10 141/93/11 109/93/11
f 46/76/9 188/171/10 187/76/9
f 135/145/37 168/147/39 136/147/39
f 109/93/11 142/95/12 110/95/12
f 50/173/11 188/171/10 48/171/10
f 136/147/39 138/86/7 106/86/7
f 110/95/12 143/100/13 111/100/13
f 52/172/12 189/173/11 50/173/11
f 111/100/13 144/99/14 112/99/14
f 54/174/13 190/172/12 52/172/12
f 112/99/14 145/101/15 113/101/15
f 56/176/14 191/174/13 54/174/13
f 113/101/15 146/105/16 114/105/16
f 58/175/15 192/176/14 56/176/14
f 114/105/16 147/107/17 115/107/17
f 60/177/16 193/175/15 58/175/15
f 115/107/17 148/109/18 116/109/18
f 62/178/17 194/177/16 60/177/16
f 116/109/18 149/112/19 117/112/19
f 64/167/18 195/178/17 62/178/17
f 203/16/8 266/15/7 201/17/7
f 205/19/9 265/18/8 203/16/8
f 205/19/9 268/22/10 267/20/9
f 207/21/10 269/24/11 268/22/10
f 211/25/12 269/24/11 209/23/11
f 213/27/13 270/26/12 211/25/12
f 215/29/14 271/28/13 213/27/13
f 217/31/15 272/30/14 215/29/14
f 217/31/15 274/34/16 273/32/15
f 221/35/17 274/34/16 219/33/16
f 223/37/18 275/36/17 221/35/17
f 225/39/19 276/38/18 223/37/18
f 227/41/20 277/40/19 225/39/19
f 229/43/21 278/42/20 227/41/20
f 231/45/22 279/44/21 229/43/21
f 233/47/23 280/46/22 231/45/22
f 233/47/23 282/50/24 281/48/23
f 237/51/25 282/50/24 235/49/24
f 237/51/25 284/54/26 283/52/25
f 241/55/27 284/54/26 239/53/26
f 241/55/27 286/58/28 285/56/27
f 243/57/28 287/60/29 286/58/28
f 247/61/30 287/60/29 245/59/29
f 247/61/30 289/64/31 288/62/30
f 251/65/32 289/64/31 249/63/31
f 253/67/33 290/66/32 251/65/32
f 255/69/34 291/68/33 253/67/33
f 257/71/35 292/70/34 255/69/34
f 259/73/36 293/72/35 257/71/35
f 261/75/37 294/74/36 259/73/36
f 234/169/40 250/175/40 202/159/40
f 263/80/39 295/79/37 261/75/37
f 201/82/7 296/81/39 263/80/39
f 235/179/38 219/180/38 203/181/38
f 266/88/40 297/89/40 298/86/40
f 265/87/40 299/91/40 297/89/40
f 299/91/40 268/92/40 300/94/40
f 268/92/40 301/93/40 300/94/40
f 269/96/40 302/95/40 301/93/40
f 302/95/40 271/97/40 303/100/40
f 271/97/40 304/99/40 303/100/40
f 272/102/40 305/101/40 304/99/40
f 273/104/40 306/105/40 305/101/40
f 274/103/40 307/107/40 306/105/40
f 275/106/40 308/109/40 307/107/40
f 308/109/40 277/110/40 309/112/40
f 309/112/40 278/114/40 310/111/40
f 278/114/40 311/116/40 310/111/40
f 279/113/40 312/115/40 311/116/40
f 280/118/40 313/117/40 312/115/40
f 281/120/40 314/119/40 313/117/40
f 314/119/40 283/121/40 315/124/40
f 283/121/40 316/123/40 315/124/40
f 284/126/40 317/128/40 316/123/40
f 317/128/40 286/130/40 318/127/40
f 286/130/40 319/131/40 318/127/40
f 287/129/40 320/134/40 319/131/40
f 288/132/40 321/133/40 320/134/40
f 289/136/40 322/135/40 321/133/40
f 322/135/40 291/137/40 323/140/40
f 323/140/40 292/142/40 324/139/40
f 324/139/40 293/141/40 325/144/40
f 293/141/40 326/143/40 325/144/40
f 326/143/40 295/148/40 327/145/40
f 295/148/40 328/147/40 327/145/40
f 296/149/40 298/86/40 328/147/40
f 374/151/36 230/150/37 228/151/36
f 322/135/32 353/133/31 321/133/31
f 373/152/35 228/151/36 226/152/35
f 353/133/31 320/134/30 321/133/31
f 372/153/34 226/152/35 224/153/34
f 352/134/30 319/131/29 320/134/30
f 222/77/33 372/153/34 224/153/34
f 351/131/29 318/127/28 319/131/29
f 370/154/32 222/77/33 220/154/32
f 350/127/28 317/128/27 318/127/28
f 218/155/31 370/154/32 220/154/32
f 349/128/27 316/123/26 317/128/27
f 368/156/30 218/155/31 216/156/30
f 348/123/26 315/124/25 316/123/26
f 367/157/29 216/156/30 214/157/29
f 347/124/25 314/119/24 315/124/25
f 366/158/28 214/157/29 212/158/28
f 392/160/22 202/159/23 264/160/22
f 346/119/24 313/117/23 314/119/24
f 365/161/27 212/158/28 210/161/27
f 391/162/21 264/160/22 262/162/21
f 345/117/23 312/115/22 313/117/23
f 364/163/26 210/161/27 208/163/26
f 390/164/20 262/162/21 260/164/20
f 344/115/22 311/116/21 312/115/22
f 363/78/25 208/163/26 206/78/25
f 389/165/19 260/164/20 258/165/19
f 343/116/21 310/111/20 311/116/21
f 361/166/24 206/78/25 204/166/24
f 388/167/18 258/165/19 256/167/18
f 342/111/20 309/112/19 310/111/20
f 362/159/23 204/166/24 202/159/23
f 330/86/40 361/166/40 362/159/40
f 329/89/40 363/78/40 361/166/40
f 331/91/40 364/163/40 363/78/40
f 364/163/40 333/93/40 365/161/40
f 333/93/40 366/158/40 365/161/40
f 334/95/40 367/157/40 366/158/40
f 335/100/40 368/156/40 367/157/40
f 336/99/40 369/155/40 368/156/40
f 369/155/40 338/105/40 370/154/40
f 338/105/40 371/77/40 370/154/40
f 371/77/40 340/109/40 372/153/40
f 372/153/40 341/112/40 373/152/40
f 341/112/40 374/151/40 373/152/40
f 342/111/40 375/150/40 374/151/40
f 343/116/40 376/168/40 375/150/40
f 344/115/40 377/169/40 376/168/40
f 345/117/40 378/170/40 377/169/40
f 378/170/40 347/124/40 379/76/40
f 347/124/40 380/171/40 379/76/40
f 380/171/40 349/128/40 381/173/40
f 349/128/40 382/172/40 381/173/40
f 382/172/40 351/131/40 383/174/40
f 383/174/40 352/134/40 384/176/40
f 352/134/40 385/175/40 384/176/40
f 353/133/40 386/177/40 385/175/40
f 354/135/40 387/178/40 386/177/40
f 355/140/40 388/167/40 387/178/40
f 388/167/40 357/144/40 389/165/40
f 357/144/40 390/164/40 389/165/40
f 390/164/40 359/145/40 391/162/40
f 391/162/40 360/147/40 392/160/40
f 360/147/40 362/159/40 392/160/40
f 355/140/33 322/135/32 323/140/33
f 375/150/37 232/168/39 230/150/37
f 356/139/34 323/140/33 324/139/34
f 329/89/8 298/86/7 297/89/8
f 376/168/39 234/169/7 232/168/39
f 357/144/35 324/139/34 325/144/35
f 299/91/9 329/89/8 297/89/8
f 377/169/7 236/170/8 234/169/7
f 358/143/36 325/144/35 326/143/36
f 332/94/10 299/91/9 300/94/10
f 378/170/8 238/76/9 236/170/8
f 359/145/37 326/143/36 327/145/37
f 301/93/11 332/94/10 300/94/10
f 379/76/9 240/171/10 238/76/9
f 360/147/39 327/145/37 328/147/39
f 334/95/12 301/93/11 302/95/12
f 380/171/10 242/173/11 240/171/10
f 330/86/7 328/147/39 298/86/7
f 335/100/13 302/95/12 303/100/13
f 242/173/11 382/172/12 244/172/12
f 336/99/14 303/100/13 304/99/14
f 382/172/12 246/174/13 244/172/12
f 305/101/15 336/99/14 304/99/14
f 383/174/13 248/176/14 246/174/13
f 338/105/16 305/101/15 306/105/16
f 248/176/14 385/175/15 250/175/15
f 339/107/17 306/105/16 307/107/17
f 385/175/15 252/177/16 250/175/15
f 340/109/18 307/107/17 308/109/18
f 386/177/16 254/178/17 252/177/16
f 341/112/19 308/109/18 309/112/19
f 387/178/17 256/167/18 254/178/17
f 74/15/7 73/18/8 11/16/8
f 73/18/8 75/20/9 13/19/9
f 75/20/9 76/22/10 15/21/10
f 76/22/10 77/24/11 17/23/11
f 77/24/11 78/26/12 19/25/12
f 78/26/12 79/28/13 21/27/13
f 79/28/13 80/30/14 23/29/14
f 80/30/14 81/32/15 25/31/15
f 81/32/15 82/34/16 27/33/16
f 82/34/16 83/36/17 29/35/17
f 83/36/17 84/38/18 31/37/18
f 84/38/18 85/40/19 33/39/19
f 85/40/19 86/42/20 35/41/20
f 86/42/20 87/44/21 37/43/21
f 87/44/21 88/46/22 39/45/22
f 88/46/22 89/48/23 41/47/23
f 89/48/23 90/50/24 43/49/24
f 90/50/24 91/52/25 45/51/25
f 91/52/25 92/54/26 47/53/26
f 92/54/26 93/56/27 49/55/27
f 93/56/27 94/58/28 51/57/28
f 94/58/28 95/60/29 53/59/29
f 95/60/29 96/62/30 55/61/30
f 96/62/30 97/64/31 57/63/31
f 97/64/31 98/66/32 59/65/32
f 98/66/32 99/68/33 61/67/33
f 99/68/33 100/70/34 63/69/34
f 100/70/34 101/72/35 65/71/35
f 101/72/35 102/74/36 67/73/36
f 102/74/36 103/79/37 69/75/37
f 14/78/38 12/166/38 10/159/38
f 10/159/38 72/160/38 70/162/38
f 70/162/38 68/164/38 66/165/38
f 66/165/38 64/167/38 62/178/38
f 62/178/38 60/177/38 58/175/38
f 58/175/38 56/176/38 54/174/38
f 54/174/38 52/172/38 50/173/38
f 50/173/38 48/171/38 46/76/38
f 46/76/38 44/170/38 42/169/38
f 42/169/38 40/168/38 38/150/38
f 38/150/38 36/151/38 34/152/38
f 34/152/38 32/153/38 30/77/38
f 30/77/38 28/154/38 26/155/38
f 26/155/38 24/156/38 22/157/38
f 22/157/38 20/158/38 18/161/38
f 18/161/38 16/163/38 14/78/38
f 14/78/38 10/159/38 70/162/38
f 70/162/38 66/165/38 62/178/38
f 62/178/38 58/175/38 54/174/38
f 54/174/38 50/173/38 46/76/38
f 46/76/38 42/169/38 38/150/38
f 38/150/38 34/152/38 30/77/38
f 30/77/38 26/155/38 22/157/38
f 22/157/38 18/161/38 14/78/38
f 14/78/38 70/162/38 62/178/38
f 62/178/38 54/174/38 46/76/38
f 46/76/38 38/150/38 30/77/38
f 30/77/38 22/157/38 14/78/38
f 14/78/38 62/178/38 46/76/38
f 103/79/37 104/81/39 71/80/39
f 104/81/39 74/182/7 9/82/7
f 71/85/40 9/183/40 11/181/40
f 11/181/40 13/184/40 15/185/40
f 15/185/40 17/186/40 19/187/40
f 19/187/40 21/188/40 23/189/40
f 23/189/40 25/190/40 27/180/40
f 27/180/40 29/191/40 31/192/40
f 31/192/40 33/193/40 35/194/40
f 35/194/40 37/195/40 39/83/40
f 39/83/40 41/196/40 43/179/40
f 43/179/40 45/197/40 47/198/40
f 47/198/40 49/199/40 51/200/40
f 51/200/40 53/201/40 55/84/40
f 55/84/40 57/202/40 59/203/40
f 59/203/40 61/204/40 63/205/40
f 63/205/40 65/206/40 67/207/40
f 67/207/40 69/208/40 71/85/40
f 71/85/40 11/181/40 15/185/40
f 15/185/40 19/187/40 23/189/40
f 23/189/40 27/180/40 31/192/40
f 31/192/40 35/194/40 39/83/40
f 39/83/40 43/179/40 47/198/40
f 47/198/40 51/200/40 55/84/40
f 55/84/40 59/203/40 63/205/40
f 63/205/40 67/207/40 71/85/40
f 71/85/40 15/185/40 23/189/40
f 23/189/40 31/192/40 39/83/40
f 39/83/40 47/198/40 55/84/40
f 55/84/40 63/205/40 71/85/40
f 71/85/40 23/189/40 39/83/40
f 106/86/38 105/89/38 73/87/38
f 105/89/38 107/91/38 75/90/38
f 107/91/38 108/94/38 76/92/38
f 109/93/38 77/96/38 76/92/38
f 110/95/38 78/98/38 77/96/38
f 110/95/38 111/100/38 79/97/38
f 112/99/38 80/102/38 79/97/38
f 113/101/38 81/104/38 80/102/38
f 113/101/38 114/105/38 82/103/38
f 114/105/38 115/107/38 83/106/38
f 115/107/38 116/109/38 84/108/38
f 116/109/38 117/112/38 85/110/38
f 118/111/38 86/114/38 85/110/38
f 118/111/38 119/116/38 87/113/38
f 120/115/38 88/118/38 87/113/38
f 121/117/38 89/120/38 88/118/38
f 122/119/38 90/122/38 89/120/38
f 122/119/38 123/124/38 91/121/38
f 124/123/38 92/126/38 91/121/38
f 124/123/38 125/128/38 93/125/38
f 126/127/38 94/130/38 93/125/38
f 126/127/38 127/131/38 95/129/38
f 127/131/38 128/134/38 96/132/38
f 129/133/38 97/136/38 96/132/38
f 130/135/38 98/138/38 97/136/38
f 130/135/38 131/140/38 99/137/38
f 132/139/38 100/142/38 99/137/38
f 132/139/38 133/144/38 101/141/38
f 134/143/38 102/146/38 101/141/38
f 135/145/38 103/148/38 102/146/38
f 136/147/38 104/149/38 103/148/38
f 106/86/38 74/88/38 104/149/38
f 38/150/37 183/150/37 182/151/36
f 129/133/31 161/133/31 162/135/32
f 36/151/36 182/151/36 181/152/35
f 128/134/30 160/134/30 161/133/31
f 34/152/35 181/152/35 180/153/34
f 127/131/29 159/131/29 160/134/30
f 32/153/34 180/153/34 179/77/33
f 126/127/28 158/127/28 159/131/29
f 30/77/33 179/77/33 178/154/32
f 125/128/27 157/128/27 158/127/28
f 28/154/32 178/154/32 177/155/31
f 124/123/26 156/123/26 157/128/27
f 26/155/31 177/155/31 176/156/30
f 123/124/25 155/124/25 156/123/26
f 24/156/30 176/156/30 175/157/29
f 123/124/25 122/119/24 154/119/24
f 22/157/29 175/157/29 174/158/28
f 10/159/23 170/159/23 200/160/22
f 121/117/23 153/117/23 154/119/24
f 18/161/27 20/158/28 174/158/28
f 72/160/22 200/160/22 199/162/21
f 120/115/22 152/115/22 153/117/23
f 18/161/27 173/161/27 172/163/26
f 70/162/21 199/162/21 198/164/20
f 119/116/21 151/116/21 152/115/22
f 16/163/26 172/163/26 171/78/25
f 68/164/20 198/164/20 197/165/19
f 118/111/20 150/111/20 151/116/21
f 14/78/25 171/78/25 169/166/24
f 66/165/19 197/165/19 196/167/18
f 117/112/19 149/112/19 150/111/20
f 10/159/23 12/166/24 169/166/24
f 169/166/38 137/89/38 138/86/38
f 171/78/38 139/91/38 137/89/38
f 172/163/38 140/94/38 139/91/38
f 172/163/38 173/161/38 141/93/38
f 174/158/38 142/95/38 141/93/38
f 175/157/38 143/100/38 142/95/38
f 176/156/38 144/99/38 143/100/38
f 177/155/38 145/101/38 144/99/38
f 177/155/38 178/154/38 146/105/38
f 179/77/38 147/107/38 146/105/38
f 179/77/38 180/153/38 148/109/38
f 180/153/38 181/152/38 149/112/38
f 182/151/38 150/111/38 149/112/38
f 183/150/38 151/116/38 150/111/38
f 184/168/38 152/115/38 151/116/38
f 185/169/38 153/117/38 152/115/38
f 186/170/38 154/119/38 153/117/38
f 186/170/38 187/76/38 155/124/38
f 188/171/38 156/123/38 155/124/38
f 188/171/38 189/173/38 157/128/38
f 190/172/38 158/127/38 157/128/38
f 191/174/38 159/131/38 158/127/38
f 191/174/38 192/176/38 160/134/38
f 193/175/38 161/133/38 160/134/38
f 194/177/38 162/135/38 161/133/38
f 194/177/38 195/178/38 163/140/38
f 196/167/38 164/139/38 163/140/38
f 196/167/38 197/165/38 165/144/38
f 198/164/38 166/143/38 165/144/38
f 198/164/38 199/162/38 167/145/38
f 200/160/38 168/147/38 167/145/38
f 170/159/38 138/86/38 168/147/38
f 130/135/32 162/135/32 163/140/33
f 40/168/39 184/168/39 183/150/37
f 131/140/33 163/140/33 164/139/34
f 106/86/7 138/86/7 137/89/8
f 42/169/7 185/169/7 184/168/39
f 132/139/34 164/139/34 165/144/35
f 105/89/8 137/89/8 139/91/9
f 44/170/8 186/170/8 185/169/7
f 133/144/35 165/144/35 166/143/36
f 107/91/9 139/91/9 140/94/10
f 46/76/9 187/76/9 186/170/8
f 134/143/36 166/143/36 167/145/37
f 108/94/10 140/94/10 141/93/11
f 46/76/9 48/171/10 188/171/10
f 135/145/37 167/145/37 168/147/39
f 109/93/11 141/93/11 142/95/12
f 50/173/11 189/173/11 188/171/10
f 136/147/39 168/147/39 138/86/7
f 110/95/12 142/95/12 143/100/13
f 52/172/12 190/172/12 189/173/11
f 111/100/13 143/100/13 144/99/14
f 54/174/13 191/174/13 190/172/12
f 112/99/14 144/99/14 145/101/15
f 56/176/14 192/176/14 191/174/13
f 113/101/15 145/101/15 146/105/16
f 58/175/15 193/175/15 192/176/14
f 114/105/16 146/105/16 147/107/17
f 60/177/16 194/177/16 193/175/15
f 115/107/17 147/107/17 148/109/18
f 62/178/17 195/178/17 194/177/16
f 116/109/18 148/109/18 149/112/19
f 64/167/18 196/167/18 195/178/17
f 203/16/8 265/18/8 266/15/7
f 205/19/9 267/20/9 265/18/8
f 205/19/9 207/21/10 268/22/10
f 207/21/10 209/23/11 269/24/11
f 211/25/12 270/26/12 269/24/11
f 213/27/13 271/28/13 270/26/12
f 215/29/14 272/30/14 271/28/13
f 217/31/15 273/32/15 272/30/14
f 217/31/15 219/33/16 274/34/16
f 221/35/17 275/36/17 274/34/16
f 223/37/18 276/38/18 275/36/17
f 225/39/19 277/40/19 276/38/18
f 227/41/20 278/42/20 277/40/19
f 229/43/21 279/44/21 278/42/20
f 231/45/22 280/46/22 279/44/21
f 233/47/23 281/48/23 280/46/22
f 233/47/23 235/49/24 282/50/24
f 237/51/25 283/52/25 282/50/24
f 237/51/25 239/53/26 284/54/26
f 241/55/27 285/56/27 284/54/26
f 241/55/27 243/57/28 286/58/28
f 243/57/28 245/59/29 287/60/29
f 247/61/30 288/62/30 287/60/29
f 247/61/30 249/63/31 289/64/31
f 251/65/32 290/66/32 289/64/31
f 253/67/33 291/68/33 290/66/32
f 255/69/34 292/70/34 291/68/33
f 257/71/35 293/72/35 292/70/34
f 259/73/36 294/74/36 293/72/35
f 261/75/37 295/79/37 294/74/36
f 202/159/40 204/166/40 206/78/40
f 206/78/40 208/163/40 210/161/40
f 210/161/40 212/158/40 214/157/40
f 214/157/40 216/156/40 218/155/40
f 218/155/40 220/154/40 222/77/40
f 222/77/40 224/153/40 226/152/40
f 226/152/40 228/151/40 230/150/40
f 230/150/40 232/168/40 234/169/40
f 234/169/40 236/170/40 238/76/40
f 238/76/40 240/171/40 242/173/40
f 242/173/40 244/172/40 246/174/40
f 246/174/40 248/176/40 250/175/40
f 250/175/40 252/177/40 254/178/40
f 254/178/40 256/167/40 258/165/40
f 258/165/40 260/164/40 262/162/40
f 262/162/40 264/160/40 202/159/40
f 202/159/40 206/78/40 210/161/40
f 210/161/40 214/157/40 218/155/40
f 218/155/40 222/77/40 226/152/40
f 226/152/40 230/150/40 234/169/40
f 234/169/40 238/76/40 242/173/40
f 242/173/40 246/174/40 250/175/40
f 250/175/40 254/178/40 258/165/40
f 258/165/40 262/162/40 202/159/40
f 202/159/40 210/161/40 218/155/40
f 218/155/40 226/152/40 234/169/40
f 234/169/40 242/173/40 250/175/40
f 250/175/40 258/165/40 202/159/40
f 202/159/40 218/155/40 234/169/40
f 263/80/39 296/81/39 295/79/37
f 201/82/7 266/182/7 296/81/39
f 203/181/38 201/183/38 263/85/38
f 263/85/38 261/208/38 259/207/38
f 259/207/38 257/206/38 255/205/38
f 255/205/38 253/204/38 251/203/38
f 251/203/38 249/202/38 247/84/38
f 247/84/38 245/201/38 243/200/38
f 243/200/38 241/199/38 239/198/38
f 239/198/38 237/197/38 235/179/38
f 235/179/38 233/196/38 231/83/38
f 231/83/38 229/195/38 227/194/38
f 227/194/38 225/193/38 223/192/38
f 223/192/38 221/191/38 219/180/38
f 219/180/38 217/190/38 215/189/38
f 215/189/38 213/188/38 211/187/38
f 211/187/38 209/186/38 207/185/38
f 207/185/38 205/184/38 203/181/38
f 203/181/38 263/85/38 259/207/38
f 259/207/38 255/205/38 251/203/38
f 251/203/38 247/84/38 243/200/38
f 243/200/38 239/198/38 235/179/38
f 235/179/38 231/83/38 227/194/38
f 227/194/38 223/192/38 219/180/38
f 219/180/38 215/189/38 211/187/38
f 211/187/38 207/185/38 203/181/38
f 203/181/38 259/207/38 251/203/38
f 251/203/38 243/200/38 235/179/38
f 235/179/38 227/194/38 219/180/38
f 219/180/38 211/187/38 203/181/38
f 203/181/38 251/203/38 235/179/38
f 266/88/40 265/87/40 297/89/40
f 265/87/40 267/90/40 299/91/40
f 299/91/40 267/90/40 268/92/40
f 268/92/40 269/96/40 301/93/40
f 269/96/40 270/98/40 302/95/40
f 302/95/40 270/98/40 271/97/40
f 271/97/40 272/102/40 304/99/40
f 272/102/40 273/104/40 305/101/40
f 273/104/40 274/103/40 306/105/40
f 274/103/40 275/106/40 307/107/40
f 275/106/40 276/108/40 308/109/40
f 308/109/40 276/108/40 277/110/40
f 309/112/40 277/110/40 278/114/40
f 278/114/40 279/113/40 311/116/40
f 279/113/40 280/118/40 312/115/40
f 280/118/40 281/120/40 313/117/40
f 281/120/40 282/122/40 314/119/40
f 314/119/40 282/122/40 283/121/40
f 283/121/40 284/126/40 316/123/40
f 284/126/40 285/125/40 317/128/40
f 317/128/40 285/125/40 286/130/40
f 286/130/40 287/129/40 319/131/40
f 287/129/40 288/132/40 320/134/40
f 288/132/40 289/136/40 321/133/40
f 289/136/40 290/138/40 322/135/40
f 322/135/40 290/138/40 291/137/40
f 323/140/40 291/137/40 292/142/40
f 324/139/40 292/142/40 293/141/40
f 293/141/40 294/146/40 326/143/40
f 326/143/40 294/146/40 295/148/40
f 295/148/40 296/149/40 328/147/40
f 296/149/40 266/88/40 298/86/40
f 374/151/36 375/150/37 230/150/37
f 322/135/32 354/135/32 353/133/31
f 373/152/35 374/151/36 228/151/36
f 353/133/31 352/134/30 320/134/30
f 372/153/34 373/152/35 226/152/35
f 352/134/30 351/131/29 319/131/29
f 222/77/33 371/77/33 372/153/34
f 351/131/29 350/127/28 318/127/28
f 370/154/32 371/77/33 222/77/33
f 350/127/28 349/128/27 317/128/27
f 218/155/31 369/155/31 370/154/32
f 349/128/27 348/123/26 316/123/26
f 368/156/30 369/155/31 218/155/31
f 348/123/26 347/124/25 315/124/25
f 367/157/29 368/156/30 216/156/30
f 347/124/25 346/119/24 314/119/24
f 366/158/28 367/157/29 214/157/29
f 392/160/22 362/159/23 202/159/23
f 346/119/24 345/117/23 313/117/23
f 365/161/27 366/158/28 212/158/28
f 391/162/21 392/160/22 264/160/22
f 345/117/23 344/115/22 312/115/22
f 364/163/26 365/161/27 210/161/27
f 390/164/20 391/162/21 262/162/21
f 344/115/22 343/116/21 311/116/21
f 363/78/25 364/163/26 208/163/26
f 389/165/19 390/164/20 260/164/20
f 343/116/21 342/111/20 310/111/20
f 361/166/24 363/78/25 206/78/25
f 388/167/18 389/165/19 258/165/19
f 342/111/20 341/112/19 309/112/19
f 362/159/23 361/166/24 204/166/24
f 330/86/40 329/89/40 361/166/40
f 329/89/40 331/91/40 363/78/40
f 331/91/40 332/94/40 364/163/40
f 364/163/40 332/94/40 333/93/40
f 333/93/40 334/95/40 366/158/40
f 334/95/40 335/100/40 367/157/40
f 335/100/40 336/99/40 368/156/40
f 336/99/40 337/101/40 369/155/40
f 369/155/40 337/101/40 338/105/40
f 338/105/40 339/107/40 371/77/40
f 371/77/40 339/107/40 340/109/40
f 372/153/40 340/109/40 341/112/40
f 341/112/40 342/111/40 374/151/40
f 342/111/40 343/116/40 375/150/40
f 343/116/40 344/115/40 376/168/40
f 344/115/40 345/117/40 377/169/40
f 345/117/40 346/119/40 378/170/40
f 378/170/40 346/119/40 347/124/40
f 347/124/40 348/123/40 380/171/40
f 380/171/40 348/123/40 349/128/40
f 349/128/40 350/127/40 382/172/40
f 382/172/40 350/127/40 351/131/40
f 383/174/40 351/131/40 352/134/40
f 352/134/40 353/133/40 385/175/40
f 353/133/40 354/135/40 386/177/40
f 354/135/40 355/140/40 387/178/40
f 355/140/40 356/139/40 388/167/40
f 388/167/40 356/139/40 357/144/40
f 357/144/40 358/143/40 390/164/40
f 390/164/40 358/143/40 359/145/40
f 391/162/40 359/145/40 360/147/40
f 360/147/40 330/86/40 362/159/40
f 355/140/33 354/135/32 322/135/32
f 375/150/37 376/168/39 232/168/39
f 356/139/34 355/140/33 323/140/33
f 329/89/8 330/86/7 298/86/7
f 376/168/39 377/169/7 234/169/7
f 357/144/35 356/139/34 324/139/34
f 299/91/9 331/91/9 329/89/8
f 377/169/7 378/170/8 236/170/8
f 358/143/36 357/144/35 325/144/35
f 332/94/10 331/91/9 299/91/9
f 378/170/8 379/76/9 238/76/9
f 359/145/37 358/143/36 326/143/36
f 301/93/11 333/93/11 332/94/10
f 379/76/9 380/171/10 240/171/10
f 360/147/39 359/145/37 327/145/37
f 334/95/12 333/93/11 301/93/11
f 380/171/10 381/173/11 242/173/11
f 330/86/7 360/147/39 328/147/39
f 335/100/13 334/95/12 302/95/12
f 242/173/11 381/173/11 382/172/12
f 336/99/14 335/100/13 303/100/13
f 382/172/12 383/174/13 246/174/13
f 305/101/15 337/101/15 336/99/14
f 383/174/13 384/176/14 248/176/14
f 338/105/16 337/101/15 305/101/15
f 248/176/14 384/176/14 385/175/15
f 339/107/17 338/105/16 306/105/16
f 385/175/15 386/177/16 252/177/16
f 340/109/18 339/107/17 307/107/17
f 386/177/16 387/178/17 254/178/17
f 341/112/19 340/109/18 308/109/18
f 387/178/17 388/167/18 256/167/18
o basic_servo_linked.002
v -0.375000 0.760000 1.145625
v -0.375000 -0.365000 1.145626
v -0.375000 0.760001 2.645625
v -0.375000 -0.364999 2.645626
v 0.375000 0.760000 1.145625
v 0.375000 -0.365000 1.145625
v 0.375000 0.760001 2.645625
v 0.375000 -0.364999 2.645625
vn -1.0000 -0.0000 -0.0000
vn -0.0000 -0.0000 1.0000
vn 1.0000 -0.0000 -0.0000
vn -0.0000 -0.0000 -1.0000
vn -0.0000 1.0000 -0.0000
vn -0.0000 -1.0000 -0.0000
vt 0.625000 0.000000
vt 0.375000 0.250000
vt 0.375000 0.000000
vt 0.625000 0.250000
vt 0.375000 0.500000
vt 0.625000 0.500000
vt 0.375000 0.750000
vt 0.625000 0.750000
vt 0.375000 1.000000
vt 0.125000 0.750000
vt 0.125000 0.500000
vt 0.875000 0.500000
vt 0.625000 1.000000
vt 0.875000 0.750000
s 1
usemtl Material.002
f 394/209/41 395/210/41 393/211/41
f 396/212/42 399/213/42 395/210/42
f 400/214/43 397/215/43 399/213/43
f 398/216/44 393/217/44 397/215/44
f 399/213/45 393/218/45 395/219/45
f 396/220/46 398/216/46 400/214/46
f 394/209/41 396/212/41 395/210/41
f 396/212/42 400/214/42 399/213/42
f 400/214/43 398/216/43 397/215/43
f 398/216/44 394/221/44 393/217/44
f 399/213/45 397/215/45 393/218/45
f 396/220/46 394/222/46 398/216/46
